<svg id="Layer_1" data-name="Layer 1" xmlns="http://www.w3.org/2000/svg" xmlns:xlink="http://www.w3.org/1999/xlink" viewBox="0 0 300 300"><defs><style>.cls-1,.cls-5{fill:none;}.cls-2{fill:#fff200;}.cls-3{fill:#fff;}.cls-4{clip-path:url(#clip-path);}.cls-5{stroke:#00aeef;stroke-linecap:round;stroke-linejoin:round;stroke-width:11px;}.cls-6{fill:#00aeef;}</style><clipPath id="clip-path"><path class="cls-1" d="M266.54,167.5A117.28,117.28,0,0,1,32,167.5C32,102.73,149.26,22.77,149.26,22.77S266.54,102.73,266.54,167.5Z"/></clipPath></defs><path class="cls-2" d="M149.26,289.69A123.28,123.28,0,0,1,26.11,166.54c0-19.2,10.85-52.49,62.53-102a570.39,570.39,0,0,1,60.61-50c18.63,13.26,123.15,90.41,123.15,152A123.28,123.28,0,0,1,149.26,289.69Z"/><path class="cls-3" d="M149.26,20.65a566.1,566.1,0,0,1,57.15,47.5c39.9,38.23,61,72.25,61,98.39a118.15,118.15,0,1,1-236.29,0c0-26.1,21-60.06,60.8-98.2a566,566,0,0,1,57.35-47.69m0-12.25S21.11,95.77,21.11,166.54a128.15,128.15,0,1,0,256.29,0C277.4,95.77,149.26,8.4,149.26,8.4Z"/><g class="cls-4"><path class="cls-5" d="M37.56,221s28.57,22.79,54.33,0"/><path class="cls-5" d="M91.56,221s28.57,22.79,54.33,0"/><path class="cls-5" d="M146.56,221s28.57,22.79,54.33,0"/><path class="cls-5" d="M200.56,221s28.57,22.79,54.33,0"/><path class="cls-5" d="M37.56,250s28.57,22.79,54.33,0"/><path class="cls-5" d="M91.56,250s28.57,22.79,54.33,0"/><path class="cls-5" d="M146.56,250s28.57,22.79,54.33,0"/><path class="cls-5" d="M200.56,250s28.57,22.79,54.33,0"/></g><g id="geLXgE.tif"><path class="cls-6" d="M122,112.73c.55,1.45,1,2.94,1.68,4.33,1.92,4,1.45,4.94-3,5.68-.9.15-1.76.49-3.38,1a29.68,29.68,0,0,0,2.84,1.7c2.34,1,4.69,2,7.08,2.83,3.71,1.31,7.16,2.92,9,6.94a17.86,17.86,0,0,0,1.54-1.42,4.67,4.67,0,0,1,5.3-1.54c11.34,3,21.9,7.4,29.58,16.9,2.59,3.2,3.65,3.3,7,.82,3.9-2.87,7.62-6,11.43-9,.75-.59,1.53-1.16,2.94-2.24-.37,3-.52,5.44-1,7.77-1.16,5.7-2.53,11.36-3.7,17.06-1.46,7.09-5.32,12.82-10.07,18a8.91,8.91,0,0,0-2.45,6.46c.09,11.15.09,22.31.09,33.47,0,4-.35,4.42-4.33,4.38q-26.22-.24-52.43-.54c-.64,0-1.28-.12-2.21-.22.71-5.82,1.33-11.51,2.11-17.18,1.14-8.28,2.38-16.56,3.62-24.83a12.21,12.21,0,0,0-2.26-9q-14.14-20.73-28.19-41.53c-.59-.88-1.15-1.79-1.73-2.69a4.59,4.59,0,0,1,.07-5.52Q103.07,108,114.54,91.73c1-1.37,2.16-2.23,4-1.4,9.75,4.49,19.58,8.82,29.25,13.48,5,2.44,5,2.77,3.35,8.27a86,86,0,0,1-4.05,11.06c-2.32,5-6,5.83-10.33,2.43a60.5,60.5,0,0,1-5.52-5.57q-4-4.05-8-8.08Z"/><path class="cls-6" d="M166.69,132.49c-1.16-.4-2-.61-2.77-1-2.56-1.14-5.09-2.33-7.63-3.52s-2.79-1.86-1.15-4.24c1.88-2.71,3.91-5.31,5.89-8,4.35-5.8,8.67-11.62,13.08-17.38,2-2.62,3.09-2.76,5.4-.5,2.82,2.75,5.44,5.71,8.15,8.59,1,1.09.88,2-.12,3.18-6.12,7-12.16,14-18.29,20.91A14.62,14.62,0,0,1,166.69,132.49Z"/><path class="cls-6" d="M193.77,112.53a8.56,8.56,0,0,1,1.34,1c2.53,3,5,6,7.56,8.94.89,1,.73,1.72-.26,2.55q-9.93,8.31-19.8,16.68a2.54,2.54,0,0,1-3.7-.15,49.27,49.27,0,0,1-5-5.46,2.7,2.7,0,0,1,.24-2.54c6-6.77,12.09-13.46,18.18-20.14A6.8,6.8,0,0,1,193.77,112.53Z"/><path class="cls-6" d="M140.22,91.81a32,32,0,0,1-3.32-1.06c-3.2-1.4-6.39-2.84-9.54-4.35-2-1-2.3-2-.92-3.9q5.44-7.44,11-14.78c1.32-1.75,2.47-1.87,4.2-.5,2.9,2.31,5.74,4.71,8.6,7.07a2.62,2.62,0,0,1,.57,3.95c-2.93,4.13-5.87,8.27-8.86,12.35A6.65,6.65,0,0,1,140.22,91.81Z"/><path class="cls-6" d="M156.62,110.24c.1-1.64.1-3.29.3-4.91.4-3.13-.36-4.75-3.14-6.27-1.67-.92-3.33-1.86-5-2.74-1.28-.66-1.6-1.51-.78-2.74,2.88-4.28,5.73-8.6,8.65-12.86,1.12-1.62,2.31-1.72,3.71-.37,3.42,3.29,6.78,6.63,10.17,10a2.25,2.25,0,0,1,.19,3.37c-3.62,4.8-7.15,9.67-10.77,14.48a26.38,26.38,0,0,1-2.39,2.46Z"/></g></svg>