<svg id="Layer_1" data-name="Layer 1" xmlns="http://www.w3.org/2000/svg" viewBox="0 0 300 300"><defs><style>.cls-1{fill:#231f20;}.cls-2{fill:#fff;}</style></defs><path class="cls-1" d="M0,207.65a90.88,90.88,0,0,0,149.89,69.13A90.89,90.89,0,1,0,236.2,120.94,90.89,90.89,0,1,0,63.38,121,90.92,90.92,0,0,0,0,207.65Z"/><path class="cls-2" d="M162.79,168.54a49.94,49.94,0,0,1-10.11,2.09c-.87,0-9.65.25-10.81-.44-1-.57-13.79-4.88-14.34-5.54a16.58,16.58,0,0,1-2.89-5.92q-.73-2.32-1.62-4.59a20.41,20.41,0,0,0-2-4,10.91,10.91,0,0,0-5.88-4.26,17.5,17.5,0,0,1-9.33-6.72,21.67,21.67,0,0,1-3.15-7.18,68.44,68.44,0,0,1-1.58-8.74c-.15-1.23-.29-2.47-.44-3.71-.27-2.24-.58-4.48-.8-6.72-.13-1.24-.1-2.5-.16-3.75-.1-2-.33-4-.29-6.07,0-2.49.21-5,.46-7.47a37.43,37.43,0,0,1,1-6c.6-2.28,1.48-4.49,2.3-6.71a39.63,39.63,0,0,1,5.42-9.56A45.45,45.45,0,0,1,117.2,64a43,43,0,0,1,7.65-4.78c2.08-1,4.12-2.12,6.23-3.1a24.57,24.57,0,0,1,3.49-1.26c1.69-.5,3.41-.91,5.12-1.36l.23,0A64.45,64.45,0,0,1,152.64,53c1.57.09,3.12.55,4.69.76a27.92,27.92,0,0,1,7,2c2.08.86,4.14,1.79,6.12,2.85,2.27,1.21,4.49,2.53,6.65,3.92a37.59,37.59,0,0,1,8.63,8.07,55.88,55.88,0,0,1,5.08,7.32,38.86,38.86,0,0,1,3.59,8,42.29,42.29,0,0,1,1.81,8.44,92.86,92.86,0,0,1,.61,10.4c0,3-.38,6-.62,9-.14,1.79-.34,3.57-.53,5.36-.21,2-.41,4-.7,6-.19,1.34-.51,2.67-.78,4a27.49,27.49,0,0,1-.71,3.41,30.12,30.12,0,0,1-2,4.81,16.73,16.73,0,0,1-9,7.93c-1.08.41-2.14.89-3.22,1.31a8.55,8.55,0,0,0-3.45,2.65,12.49,12.49,0,0,0-2.34,4.22c-.48,1.48-1.1,2.91-1.64,4.37-.42,1.12-.85,2.25-1.22,3.39C170.28,162.58,163.48,168.2,162.79,168.54Zm-36.13-75.6a31.58,31.58,0,0,0-6.87,1,10,10,0,0,0-6.7,5.92,15.34,15.34,0,0,0-1.21,9,11.63,11.63,0,0,0,2.93,5.85,19.32,19.32,0,0,0,5,3.58,21.52,21.52,0,0,0,7.57,2.46,14.26,14.26,0,0,0,8.07-1.41c5.11-2.37,7.71-6.55,8.45-12,.1-.79.25-1.58.34-2.38a10.84,10.84,0,0,0-.09-4.5,6.71,6.71,0,0,0-4.09-4.23,33.5,33.5,0,0,0-6.6-2.3A39,39,0,0,0,126.66,92.94Zm24.86,10c.2,1.51.43,3,.61,4.53a15.42,15.42,0,0,0,2,6.06c2.86,4.76,7.29,6.94,12.7,7.3a17.88,17.88,0,0,0,7-1.37,22.27,22.27,0,0,0,6.71-3.83,10.63,10.63,0,0,0,3.71-5.78,15.63,15.63,0,0,0-1.14-10.4,9.66,9.66,0,0,0-6.65-5.67c-1-.27-2.1-.41-3.15-.65-4.18-1-8.24-.12-12.25.91A45.5,45.5,0,0,0,156.08,96,6.7,6.7,0,0,0,151.52,102.93Zm-2.94,42.32v0c1.43,0,2.85,0,4.28,0,2.06-.08,3.66-1.17,3.92-2.86a7,7,0,0,0-.17-3.21q-1.76-5.07-3.85-10a4.28,4.28,0,0,0-4.07-3c-2.1,0-3.3,1.17-4.14,2.88-.33.67-.54,1.4-.81,2.09-1.08,2.73-2.2,5.43-3.22,8.18a4.15,4.15,0,0,0,3.79,5.86Z"/><path class="cls-2" d="M167,217.86c.3.34.43.62.63.69,1.1.37,2.22.69,3.33,1,.92.28,1.82.58,2.74.84,1.38.38,2.76.73,4.14,1.11,1.54.42,3.07.87,4.61,1.28s3.17.8,4.74,1.23,2.9.85,4.35,1.25c.89.24,1.8.42,2.69.65s1.92.54,2.88.78a32.71,32.71,0,0,0,4.64,1.05c2.21.21,4.44.16,6.67.18,1.4,0,2.81-.08,4.21-.1,3.6-.06,5.93,1.8,7.33,5a11.92,11.92,0,0,1,1.06,5.57,8.77,8.77,0,0,1-1.3,4.17,29.74,29.74,0,0,0-2.92,5.52c-.5,1.37-.8,2.82-1.2,4.23a8.33,8.33,0,0,1-1.32,3.42,5.67,5.67,0,0,1-5.71,1.8,11.58,11.58,0,0,1-4.42-1.7,9,9,0,0,1-2.68-2.66,34.71,34.71,0,0,0-8.35-9.28,41.53,41.53,0,0,0-8.82-5.27c-3.12-1.34-6.27-2.57-9.41-3.85-1.94-.78-3.87-1.59-5.82-2.35s-3.68-1.34-5.51-2-3.83-1.49-5.75-2.21-4.13-1.51-6.19-2.27c-.53-.19-1.08-.37-1.6-.61a4.47,4.47,0,0,0-3.72,0c-2.36.93-4.76,1.73-7.14,2.62-1.83.67-3.63,1.39-5.45,2.08-1.66.62-3.33,1.22-5,1.86-2.17.83-4.32,1.71-6.48,2.56-2.38.93-4.78,1.8-7.14,2.78a56.08,56.08,0,0,0-8.86,4.54,44.31,44.31,0,0,0-6.07,4.78,30.15,30.15,0,0,0-5.15,6.4,9.33,9.33,0,0,1-4,3.58,9.86,9.86,0,0,1-5,1.12,4.94,4.94,0,0,1-4.58-2.84,7,7,0,0,1-.65-2c-.46-3.81-2.27-7.06-4.19-10.26a9.37,9.37,0,0,1-.95-7.62,15,15,0,0,1,1.14-3,7.08,7.08,0,0,1,6.57-4.06c1.83,0,3.67.09,5.51.15A29.23,29.23,0,0,0,97,227.3c1.53-.39,3-.9,4.54-1.29,2.13-.55,4.28-1,6.4-1.58s4.19-1.2,6.28-1.8c1.35-.37,2.71-.71,4-1.09,1.56-.44,3.1-.91,4.66-1.36,1.29-.37,2.59-.72,3.89-1.07.6-.17,1.2-.31,1.79-.52.17-.06.4-.29.4-.44a.69.69,0,0,0-.4-.47c-.91-.34-1.84-.64-2.76-1-1.82-.64-3.64-1.33-5.48-1.94-2.93-1-5.84-2-8.81-2.8-2.25-.59-4.6-.82-6.9-1.26-3.84-.72-7.71-.48-11.57-.41a11.63,11.63,0,0,0-1.86.2,19.05,19.05,0,0,1-6.77.22,10.1,10.1,0,0,1-7.41-5.06,4.7,4.7,0,0,1-.48-2.92A9.07,9.07,0,0,1,78.06,199a27.32,27.32,0,0,0,1.46-2.51c.66-1.33,1.27-2.71.76-4.24a4.12,4.12,0,0,0-.83-1.47c-.72-.8-1.53-1.51-2.29-2.27a6.13,6.13,0,0,1-1.74-5.76,5.91,5.91,0,0,1,2.46-3.78,17.13,17.13,0,0,1,5-2.58,12.65,12.65,0,0,1,11.74,1.91,27.19,27.19,0,0,1,6,6.95,48.33,48.33,0,0,0,5.4,7.12,24.21,24.21,0,0,0,8.56,5.8c2.88,1.14,5.7,2.44,8.56,3.64,2.12.89,4.27,1.71,6.41,2.58,2.69,1.1,5.37,2.23,8.07,3.32,2.14.86,4.29,1.68,6.44,2.52,1.05.42,2.1.81,3.14,1.26a2.14,2.14,0,0,0,1.8,0c2-.87,4.06-1.72,6.1-2.54,2.94-1.17,5.91-2.28,8.85-3.46,2.29-.92,4.54-1.93,6.82-2.86,2.5-1,5-2,7.53-3a42.94,42.94,0,0,0,7.7-3.7,29,29,0,0,0,7.47-7.54c1.67-2.38,3.27-4.8,5-7.1a13.71,13.71,0,0,1,6.41-4.79,12.63,12.63,0,0,1,6.46-.54,17.07,17.07,0,0,1,7.16,3.16,6.25,6.25,0,0,1,2.08,6.88,8.68,8.68,0,0,1-2.4,3.37c-.33.31-.71.59-1,.93-1.8,1.88-1.83,3.12-.9,5.25.66,1.51,1.61,2.9,2.37,4.38a14,14,0,0,1,.91,2.39,4.8,4.8,0,0,1-.87,4.2,10.73,10.73,0,0,1-5.36,3.84,15,15,0,0,1-7.41.34,59,59,0,0,0-8.18-.41,50.93,50.93,0,0,0-9.3.95,59.14,59.14,0,0,0-8.35,2.16c-3.56,1.15-7.06,2.48-10.59,3.72C168.78,217.34,168,217.55,167,217.86Z"/></svg>