<svg id="Layer_1" data-name="Layer 1" xmlns="http://www.w3.org/2000/svg" xmlns:xlink="http://www.w3.org/1999/xlink" viewBox="0 0 300 300"><defs><style>.cls-1,.cls-6{fill:none;}.cls-2{fill:#fff200;}.cls-3{fill:#fff;}.cls-4{fill:#00aeef;}.cls-5{clip-path:url(#clip-path);}.cls-6{stroke:#00aeef;stroke-linecap:round;stroke-linejoin:round;stroke-width:11px;}</style><clipPath id="clip-path"><path class="cls-1" d="M267.28,166a117.28,117.28,0,1,1-234.56,0C32.72,101.19,150,21.22,150,21.22S267.28,101.19,267.28,166Z"/></clipPath></defs><path class="cls-2" d="M150,288.15A123.3,123.3,0,0,1,26.85,165c0-19.21,10.85-52.49,62.54-102A568.31,568.31,0,0,1,150,13c18.62,13.25,123.15,90.41,123.15,152A123.3,123.3,0,0,1,150,288.15Z"/><path class="cls-3" d="M150,19.11a565.66,565.66,0,0,1,57.16,47.5c39.9,38.22,61,72.24,61,98.39A118.14,118.14,0,0,1,66.46,248.54,117.34,117.34,0,0,1,31.85,165c0-26.1,21-60.06,60.8-98.21A566.91,566.91,0,0,1,150,19.11m0-12.26S21.85,94.23,21.85,165a128.15,128.15,0,0,0,256.3,0C278.15,94.23,150,6.85,150,6.85Z"/><g id="j8vCJH.tif"><path class="cls-4" d="M208.09,190.2c-.86,0-1.72-.06-2.57,0-2.75.2-5.5.43-8.24.67a67.47,67.47,0,0,1-7.61.62,53.5,53.5,0,0,0-17.62,2.5c-13.09,4.08-25.87,1.81-38.28-2.87a156.91,156.91,0,0,1-28.34-14.45,60.19,60.19,0,0,0-7.35-3.82,21.89,21.89,0,0,0-11.84-1.78,50.61,50.61,0,0,1-14.3-.83,35.6,35.6,0,0,0-9.72-.1c-3.33.28-6.66.56-10,.77-.38,0-1.1-.42-1.12-.69a1.83,1.83,0,0,1,.56-1.48A32.78,32.78,0,0,1,55.41,167a58,58,0,0,0,7-3,11.36,11.36,0,0,0,4.34-4.13c2.82-5.6,7.94-7.08,13.35-7.69A24.84,24.84,0,0,1,97,156a9.7,9.7,0,0,0,4.7,1.4c3.9.2,7.82.07,12.48.07-2.06-3.2-3.53-6.05-5.55-8.44a64.86,64.86,0,0,0-7.12-6.73c-2.35-2-5.13-3.67-7.15-6-2.18-2.51-4.59-4.73-6.9-7.08-6.13-6.22-6.71-13.84-3.71-21.75.55-1.44,2.14-2.5,3.63-4.17.23,3.28.23,3.28,2.94,7.23,2.37-1.32,3.21.76,4.27,2.08A48.36,48.36,0,0,1,97.38,117c3.62-3.18,4-3.12,7.12.57a4,4,0,0,0,2,.89c1.09.31,2.41.19,3.27.78,3.65,2.48,7.29,5,10.68,7.83,2.39,2,4.35,4.52,6.55,6.76,1.35,1.38,2.72,2.75,4.18,4q3.51,3,7.15,5.84c1.82,1.42,3.74,2.73,5.78,4.2,2.17-2.69,4.6-5.16,6.36-8,2-3.27,4.82-5.07,8.23-6.4q20.76-8.06,41.48-16.23a36.75,36.75,0,0,0,13.42-9.51,33.29,33.29,0,0,1,4.82-4.34c-.37,3.69-3.09,5.78-5.42,8.33L224,106.12l.39.57-2.6,2.22.2.33,3.72-1.2.28.47-8.2,5.6.08.35,8.75-2.39.25.52-7.5,3.73,0,.24,8.11-1.47.25.33-3.86,2.66c.53.89.53.89-4,4l2.28.77-5.3,4.81c1.41.78.68,1.52-.25,2.32-1.47,1.26-3.74,1.76-4,4.17,0,.1-.21.21-.34.26-4.15,1.53-7.43,5.51-12.33,4.38-1.37,2.07-1,4.87-3.65,6.17-.69.34-1,1.45-1.48,2.22l-5.09,8.19a2.8,2.8,0,0,1-.49.71c-3.2,2.65-5.5,6-7.8,9.43-1.14,1.69-1.91,3.32.3,5.31l-2.76-.35-.18.39,1.51,1c4.39,3,8.75,6,13.19,8.87a64.6,64.6,0,0,0,5.73,3.11c2.28,1.15,4.63,2.15,6.85,3.39a13.24,13.24,0,0,1,2.42,2.27Z"/></g><g class="cls-5"><path class="cls-6" d="M38.3,219.43s28.57,22.79,54.33,0"/><path class="cls-6" d="M92.3,219.43s28.57,22.79,54.33,0"/><path class="cls-6" d="M147.3,219.43s28.57,22.79,54.33,0"/><path class="cls-6" d="M201.3,219.43s28.57,22.79,54.33,0"/><path class="cls-6" d="M38.3,248.43s28.57,22.79,54.33,0"/><path class="cls-6" d="M92.3,248.43s28.57,22.79,54.33,0"/><path class="cls-6" d="M147.3,248.43s28.57,22.79,54.33,0"/><path class="cls-6" d="M201.3,248.43s28.57,22.79,54.33,0"/></g></svg>