<svg id="Layer_1" data-name="Layer 1" xmlns="http://www.w3.org/2000/svg" viewBox="0 0 300 300"><defs><style>.cls-1{fill:#fff200;}.cls-2{fill:#fff;}.cls-3{fill:#00aeef;}</style></defs><path class="cls-1" d="M150.36,289.94A123.29,123.29,0,0,1,27.21,166.79c0-19.2,10.85-52.49,62.53-102a570.39,570.39,0,0,1,60.61-50C169,28,273.5,105.16,273.5,166.79A123.29,123.29,0,0,1,150.36,289.94Z"/><path class="cls-2" d="M150.36,20.9a564.7,564.7,0,0,1,57.15,47.5c39.9,38.22,61,72.25,61,98.39A118.14,118.14,0,0,1,66.81,250.33a117.37,117.37,0,0,1-34.6-83.54c0-26.1,21-60.06,60.8-98.21A565.78,565.78,0,0,1,150.36,20.9m0-12.26S22.21,96,22.21,166.79a128.15,128.15,0,1,0,256.29,0C278.5,96,150.36,8.64,150.36,8.64Z"/><path class="cls-3" d="M161.49,176.65c0-1.3,0-2.27-.07-3.49a2.07,2.07,0,0,0,.87-2.94c-.38-.89.7-2.4,1.17-3.78a4.43,4.43,0,0,0-2.76,3.1c-.41,1.24-1.11,1.72-2.2,1.3-1.27-.51-.54-1.41-.18-2.19a3.43,3.43,0,0,0,.11-.64l-.42-.23c-.55.95-1.12,1.88-1.66,2.83-1.1,2-2.51,2.43-4.5,1.45a2.39,2.39,0,0,1-.63-3.95c1.84-1.86,3.54-3.87,5.47-5.62a21.94,21.94,0,0,0,5.14-7.69c1.87-4.28,4.89-7.84,7.2-11.83a52.1,52.1,0,0,0,3.85-8.82,63.19,63.19,0,0,0,2-7.83,61.07,61.07,0,0,0,.86-18c-.21-2.54-1.63-5-2.48-7.46-.35-1-.66-2.08-.91-2.88l-3.77-.18c0-1-.07-1.91-.13-3.45l3.07,1.23c.15-1.17.35-2.52.48-3.89A8.54,8.54,0,0,1,175,86.09a2.9,2.9,0,0,1,1.68-.8c1.58,0,2.08-.79,1.87-2.22a44.74,44.74,0,0,0-1.13-7.24,7.13,7.13,0,0,1,2.12-8,3.57,3.57,0,0,0,1-1.49c-.58.48-1.14,1-1.73,1.44a2.4,2.4,0,0,1-3.08.22,2.33,2.33,0,0,1-.87-3c.4-1.19.86-2.36,1.3-3.54l-.52-.24c-.31.66-.64,1.31-.94,2a32.36,32.36,0,0,1-1.39,3.19c-.68,1.18-1.64,1.21-2.6.25a2.65,2.65,0,0,1-.56-.69c-.87-2-1.94-3.86-4.17-4.67,1.56-.93,2.63-.06,3.52,1.11.48.63.69,1.49,1.15,2.16a9.86,9.86,0,0,0,1.39,1.43,9.56,9.56,0,0,0,1.22-1.64c.62-1.36,1-2.83,1.69-4.18.26-.54.95-.86,1.45-1.28.28.59.84,1.21.77,1.76-.18,1.36-.74,2.67-1,4a8.37,8.37,0,0,0,.23,2.36,12.38,12.38,0,0,0,2.12-.75c.75-.43,1.36-1.13,2.12-1.54a4.5,4.5,0,0,1,1.63-.22,5.17,5.17,0,0,1,.1,1.82,3,3,0,0,1-1.11,1.31c-2.9,2.2-3.84,4.8-2.67,8.48.82,2.55.71,5.41.94,8.14.09,1-.38,1.56-1.51,1.73-2.69.41-4.19,2.28-5,4.93-1,3.32.09,6.26,1.26,9.12a41.18,41.18,0,0,1,2.65,17.5c-.32,8.27-3,15.87-5.56,23.51-.82,2.43-2.75,4.47-4.13,6.72a81.44,81.44,0,0,0-4.57,7.66,29.33,29.33,0,0,1-7.25,9.58,13.1,13.1,0,0,0-1.76,2.41c-.3.42-.58.87-.89,1.29s-.75,1-1.14,1.47c.42.29.85.82,1.23.79a3.83,3.83,0,0,0,2.14-.74,9.7,9.7,0,0,0,1.41-2.21c.09-.14.14-.36.28-.44a8.16,8.16,0,0,1,2.18-1.15c.21-.05.67.95.91,1.3a40.94,40.94,0,0,1,3.62-2.53c.44-.25,1.19,0,1.79.07a8.32,8.32,0,0,1-.48,1.89,20.31,20.31,0,0,1-1.47,2.22l.36.69c1.76-.43,3.51-.89,5.28-1.26a23.58,23.58,0,0,1,2.39-.24,12.77,12.77,0,0,1-1.29,2.08c-.6.63-1.48,1-2.08,1.61a9.19,9.19,0,0,0-2.08,2.7c-.66,1.7,0,2.48,1.77,2.81.29.05.64,0,.85.15.73.5,1.4,1.08,2.09,1.63a7.79,7.79,0,0,1-2.14,1.14,2.79,2.79,0,0,0-2.61,2.43c-.12.74-.1,1.51-.26,2.25-.2.92-.31,2.41-.82,2.59a6.7,6.7,0,0,1-3.32-.24,2.82,2.82,0,0,1-1.29-.88,1.67,1.67,0,0,0-2.45-.21c-2,1.25-4,1.57-6.24.08a14.14,14.14,0,0,0-4.64-2,4.08,4.08,0,0,0-5,3.4c-.74,3.89-1.41,7.81-2,11.72a6.29,6.29,0,0,0,.07,2.63c1.21,4.22,2.45,8.4,5.08,12.08a83.73,83.73,0,0,0,10.84,12,23.2,23.2,0,0,1,7,13.69c1.19,7.91.78,15.8.08,23.7-.34,3.8-.51,7.61-.8,11.41-.12,1.52-.4,3-2.41,3.06-1.48,0-2.43-1.07-2.71-3.12-.63-4.78-1.09-9.56-3.07-14-2.58-5.86-6.45-10.74-10.78-15.34a83.17,83.17,0,0,1-13.62-19.37c-2.6-5.12-5.42-10.13-8.32-15.09-2.25-3.82-2.16-8-2.76-12.21-1-7,1.55-13.43,2.24-20.14.41-4,0-7.81-2.72-11.06a6.88,6.88,0,0,1-.71-1c-2.19-3.87-4.55-7.66-6.47-11.66a20.74,20.74,0,0,1-1.56-6.61,6.52,6.52,0,0,0-4.37-5.8,8,8,0,0,1-2.47-2.19c-.13-.14.47-1.25.57-1.22a18,18,0,0,1,3.18,1.05c.86.38,1.65.94,3,1.7v0c-2.14.86-3.51-2.28-5.61-2l-.24.5a15.6,15.6,0,0,0,2.11,1.25,7.31,7.31,0,0,1,4.9,6.85c.22,4.19,2.22,7.71,4.37,11.17,1,1.59,1.87,3.23,2.86,4.82.7,1.13,1.61,2.16,2.21,3.34a22.24,22.24,0,0,1,1.57,4,16.57,16.57,0,0,1,.44,7.8c-.94,4.83-1.67,9.7-2.32,14.58a22.5,22.5,0,0,0,.38,4.52c.41,5.28.66,10.58,4.55,14.8a8.84,8.84,0,0,1,1.1,2c2.75,5.17,5.39,10.41,8.29,15.51,3.44,6.06,8.11,11.19,12.79,16.32,6.24,6.84,10.56,14.63,11.27,24.1a23.43,23.43,0,0,0,.61,4c.14.48.85.81,1.31,1.2.37-.44,1.05-.84,1.08-1.3.49-5.66.89-11.34,1.26-16.42-.76-1.07-1.6-1.73-1.62-2.42s.73-1.51,1.15-2.26c.23-.42.65-.82.69-1.25a51.18,51.18,0,0,0-1.47-16.76,18.41,18.41,0,0,0-5.84-9.25c-4.37-4-8.54-8.11-11.62-13.14-3.55-5.78-6-12-4.61-19,.57-2.85,1.37-5.66,2.21-8.45a4.9,4.9,0,0,1,5.48-3.45,17.93,17.93,0,0,1,5.52,2c1.86,1.1,3.52,1.35,5.22.11a2.71,2.71,0,0,1,4,.32,4.63,4.63,0,0,0,1.28.92c1.3.61,1.93.19,1.95-1.27,0-.12,0-.23,0-.36.06-3.2.81-4.46,3.43-5.79-.92-.56-2.18-.93-2.73-1.76s-.45-2.16-.64-3.31c-.94.58-2,.93-2.16-1.07a12.61,12.61,0,0,1,0,1.37,9,9,0,0,1-.35,2,1.22,1.22,0,0,1-.91.65c-.28,0-.57-.47-.8-.77-.45-.59-.86-1.2-1.27-1.8-.23-.35-.43-.72-.65-1.08l1.25-.6c.05.1.12.21.18.32l-.53.43Z"/><path class="cls-3" d="M160.68,276c0,.46-.71.86-1.08,1.3-.46-.39-1.17-.72-1.31-1.2a23.43,23.43,0,0,1-.61-4c-.71-9.47-5-17.26-11.27-24.1-4.68-5.13-9.35-10.26-12.79-16.32-2.9-5.1-5.54-10.34-8.29-15.51a8.84,8.84,0,0,0-1.1-2c-3.89-4.22-4.14-9.52-4.55-14.8a22.5,22.5,0,0,1-.38-4.52c.65-4.88,1.38-9.75,2.32-14.58a16.57,16.57,0,0,0-.44-7.8,22.24,22.24,0,0,0-1.57-4c-.6-1.18-1.51-2.21-2.21-3.34-1-1.59-1.88-3.23-2.86-4.82-2.15-3.46-4.15-7-4.37-11.17a7.31,7.31,0,0,0-4.9-6.85,15.6,15.6,0,0,1-2.11-1.25l.24-.5c2.1-.27,3.47,2.87,5.61,2a3,3,0,0,0,.9-.56,13.6,13.6,0,0,0,.2,3.09c.22.7,1,1.76,1.45,1.75,1.31,0,3.16.94,3.8-1.06.34-1,.86-1.48,1.71-1.08s.93,1.18.17,2c-.2.21.17,1,.29,1.47.46-.22,1.12-.32,1.36-.68a6.32,6.32,0,0,0,.44-.86l.57.29a1.59,1.59,0,0,0,0,.83c.28,1.2,1.28,2.23,2,3.42l-1,1.63,1.62.1c-.65,2.47-1.49,2.49-4.21.36.92,1.19,1.61,2.68,3,2.49.79.75,1.23,1.5,1.76,1.58s1.18-.51,1.76-.81c0-.13-.12-.26-.17-.39l-1.58.54c.09-1.66.18-3.12.28-4.84.42.51.77.87,1,1.28,1.36,2,2.78,2,3.94-.1.93-1.69,1.54-3.55,2.42-5.28a75.65,75.65,0,0,1,4.5-8.26,15.3,15.3,0,0,0,2.57-5.68,29.24,29.24,0,0,1,1.63-4.92c1.21-3.09,3-5.9,3.21-9.43a55.94,55.94,0,0,1,1.76-8.76c.54-2.38,1.4-4.72,1.72-7.13.43-3.15-1.49-6.28-5.8-6.1-3.29.14-13.64,1.49-16.92,1a4.29,4.29,0,0,1-2.28-1.75c-2.11-2.9-2.35-6.32-2.4-9.74-.06-5.09-.87-9.89-4.55-13.78-.2-.22-.14-.69-.19-1,.35.06.81,0,1,.2.54.45.89,1.18,1.47,1.5a2.73,2.73,0,0,0,2,.3c.34-.16.4-1.21.41-1.86a1.93,1.93,0,0,0-.53-1.08c-1.8-2.26-1.43-5-1.57-7.57a4.27,4.27,0,0,1,.54-1.48c1.7,1,1.52,2.59,2,3.88.79,1.93.8,4.63,4.19,4.32l2.72-7.2c1.52,2.42.64,4.36.25,6.32a3.08,3.08,0,0,0,.22,2c.13.24,1.06,0,1.75,0-.06.47-.09,1-.19,1.5-.69,3.45-1.44,6.89-2.1,10.35-.48,2.52.42,3.68,2.94,3.92.69.06,8.41-1.94,9.1-2,2.53-.3,5-2,4.56-5.11-.16-1-.13-2.12-.3-3.16-.75-4.5-1.56-9-2.31-13.5-.12-.73-.07-1.47-.13-2.79,1.94,2,3.76,2.15,5.27,1.06l1.7,2.6a7.68,7.68,0,0,0-1.68,1.5c-.11.18.57.85,1,1.46a12.73,12.73,0,0,1,1-2.2c.51-.65,1.76-1.31,1.67-1.7-.22-.81-1.1-1.44-1.71-2.14-.14-.16-.3-.3-.74-.74l3-1.52,2.42-2-3.15.95c.09-.27.19-.53.26-.8.35-1.41,1-2.87-.35-4.1a4.62,4.62,0,0,0-5.33-.22c-1,.72-2,1.61-3.14,2.58.25-3.79.48-7.34.74-10.91a2,2,0,0,1,.44-.93c1.78-2.42,6.66-4.22,9.55-3.32,3.41,1.06,4.41,4.32,5.65,7.09.94,2.11,1.6,4.21,3.61,5.63a5.24,5.24,0,0,1,1.94,2.37c1.13,3.43,2,6.92,2.88,9.82L163,66.88l2.39,1.53.31-.43c.44,1.61-.36,3.19-.1,4.82a17,17,0,0,1-.25,3c-.07,2.57.07,5.08,2.76,6.56.43.24.57,1,.74,1.32l4-.8c-.1.78-.17,1.37-.25,2l.29.05c.19-.63.39-1.25.61-2l1,.21c0-.32,0-.64,0-1l.38-.25c.54.51,1.07,1,1.55,1.48.78-1.26.09-1.94-3.15-2.07a24.71,24.71,0,0,0,1.85-2.6,11.92,11.92,0,0,0,.65-2.23c-.72,0-1.43-.11-2.15-.13a3.27,3.27,0,0,0-.79.3c-1-2.9-2.28-5.48-5.7-5.87,0-.83,0-1.5-.06-2.16,2.44-.35,2.82-1.18,1.49-3a3.33,3.33,0,0,0-1.11-1.07A2.65,2.65,0,0,1,166,61.42h0l.06,0c2.23.81,3.3,2.65,4.17,4.67a2.65,2.65,0,0,0,.56.69c1,1,1.92.93,2.6-.25a32.36,32.36,0,0,0,1.39-3.19c.3-.68.63-1.33.94-2l.52.24c-.44,1.18-.9,2.35-1.3,3.54a2.33,2.33,0,0,0,.87,3,2.4,2.4,0,0,0,3.08-.22c.59-.46,1.15-1,1.73-1.44a3.57,3.57,0,0,1-1,1.49,7.13,7.13,0,0,0-2.12,8,44.74,44.74,0,0,1,1.13,7.24c.21,1.43-.29,2.19-1.87,2.22a2.9,2.9,0,0,0-1.68.8A8.54,8.54,0,0,0,172,91.65c-.13,1.37-.33,2.72-.48,3.89l-3.07-1.23c.06,1.54.09,2.5.13,3.45l3.77.18c.25.8.56,1.85.91,2.88.85,2.48,2.27,4.92,2.48,7.46a61.07,61.07,0,0,1-.86,18,63.19,63.19,0,0,1-2,7.83A52.1,52.1,0,0,1,169,143c-2.31,4-5.33,7.55-7.2,11.83a21.94,21.94,0,0,1-5.14,7.69c-1.93,1.75-3.63,3.76-5.47,5.62a2.39,2.39,0,0,0,.63,3.95c2,1,3.4.52,4.5-1.45.54-1,1.11-1.88,1.66-2.83l.42.23a3.43,3.43,0,0,1-.11.64c-.36.78-1.09,1.68.18,2.19,1.09.42,1.79-.06,2.2-1.3a4.43,4.43,0,0,1,2.76-3.1c-.47,1.38-1.55,2.89-1.17,3.78a2.07,2.07,0,0,1-.87,2.94c0,1.22,0,2.19.07,3.49l-2.31-2.78.53-.43c-.06-.11-.13-.22-.18-.32l-1.25.6c.22.36.42.73.65,1.08.41.6.82,1.21,1.27,1.8.23.3.52.75.8.77a1.22,1.22,0,0,0,.91-.65,9,9,0,0,0,.35-2,12.61,12.61,0,0,0,0-1.37c.17,2,1.22,1.65,2.16,1.07.19,1.15.07,2.45.64,3.31s1.81,1.2,2.73,1.76c-2.62,1.33-3.37,2.59-3.43,5.79,0,.13,0,.24,0,.36,0,1.46-.65,1.88-1.95,1.27a4.63,4.63,0,0,1-1.28-.92,2.71,2.71,0,0,0-4-.32c-1.7,1.24-3.36,1-5.22-.11a17.93,17.93,0,0,0-5.52-2,4.9,4.9,0,0,0-5.48,3.45c-.84,2.79-1.64,5.6-2.21,8.45-1.4,7,1.06,13.23,4.61,19,3.08,5,7.25,9.16,11.62,13.14a18.41,18.41,0,0,1,5.84,9.25,51.18,51.18,0,0,1,1.47,16.76c0,.43-.46.83-.69,1.25-.42.75-1.17,1.51-1.15,2.26s.86,1.35,1.62,2.42C161.57,264.61,161.17,270.29,160.68,276Z"/><path class="cls-3" d="M124.75,156c0,.13.12.26.17.39-.58.3-1.22.89-1.76.81s-1-.83-1.76-1.58c-1.42.19-2.11-1.3-3-2.49,2.72,2.13,3.56,2.11,4.21-.36l-1.62-.1,1-1.63c-.73-1.19-1.73-2.22-2-3.42a1.59,1.59,0,0,1,0-.83c.28-1.05,2-.86,2.78-1.57-.54-1.07-2.68-1.37-1.65-3a15.77,15.77,0,0,1,2.61-2.62c-.09-.16-.19-.31-.27-.46a10.73,10.73,0,0,1-1.77.64,3.75,3.75,0,0,1-2.24.06c-.42-.24-.62-1.37-.46-2a31.31,31.31,0,0,1,1.59-4.23,12.66,12.66,0,0,0,1-2.55c-1.13,1.54-3.54,4.68-5.08,6.76l-.21-.21h0c.6-.89,2.07-3,2.67-3.93.74-1.12,1.42-2.28,2.24-3.33.29-.38.94-.47,1.43-.7a4.43,4.43,0,0,1,0,1.59c-.77,1.71-1.74,3.32-2.47,5a17.75,17.75,0,0,0-.62,3.34,12.8,12.8,0,0,1,2.11-.85c.95-.14,2.42-.53,2.78-.09.9,1.12-.29,2-1.1,2.73-.48.45-1,.84-1.56,1.3,3.12,2.45,3,2.81-.72,4.4,0,1.93,1.87,2.35,2.77,3.53.53.68,1.32,1.18,1.77,1.9.84,1.35,1.51.87,2-.12a24.52,24.52,0,0,0,2.29-4.94c.95-3.51,2.94-6.34,5.05-9.18a10.91,10.91,0,0,0,2-4,25.75,25.75,0,0,1,2.65-7.38,12.77,12.77,0,0,0,1.72-5,58.12,58.12,0,0,1,3.34-15.24c.69-2,1.09-4.21-.13-6.32A4,4,0,0,0,141,98.41c-3.48-.31-14,1.6-17.44,1.06-2.93-.47-4.26-3-4.75-5.52-.71-3.72-.73-7.57-1.38-11.31-.57-3.3-1.23-6.66-4.09-9a2.41,2.41,0,0,1,0-2.31c.66-1,1.75-.78,2.61,0,.64.59,1.22,1.25,1.84,1.88l.42-.31a4.82,4.82,0,0,0-.49-1.16c-1.89-2.34-1.66-5.17-1.73-7.89,0-1.16.16-2.89,1.66-2.83.86.05,1.92,1.37,2.42,2.35A40.16,40.16,0,0,1,121.59,68c.15.42.63.73,1,1.09.39-.38.94-.68,1.13-1.13.67-1.56,1.16-3.19,1.83-4.75.2-.47.8-1.07,1.21-1.06s.88.66,1.13,1.13c1.06,2,.35,4-.1,6-.06.27-.14.53-.28,1.07.4-.27.57-.42.75-.51.37-.19.75-.36,1.12-.54a3.06,3.06,0,0,1,.34,1.12,47,47,0,0,1-.6,4.71c-.43,2.24-1,4.47-1.47,6.7a15.44,15.44,0,0,0-.34,1.9c-.15,1.42.46,2.28,2,2.25,1,0,9-2,9.95-2.21a3.25,3.25,0,0,0,2.54-3.7,34.35,34.35,0,0,0-.69-4.51,67.3,67.3,0,0,1-1.74-19.9,96.38,96.38,0,0,1,1.16-11c.3-1.42,1.85-2.77,3.12-3.77,2.83-2.25,8.08-2.42,10.35-.53a5.72,5.72,0,0,1,1.56,1.87c1.22,2.52,3.35,3.46,6,3.72,1.91.2,3.54,2.19,2.65,3.92-1.76,3.43.29,6.25.83,9.31a10.56,10.56,0,0,0,1,2.29,2.65,2.65,0,0,0,1.48,3.13,3.33,3.33,0,0,1,1.11,1.07c1.33,1.81,1,2.64-1.49,3,0,.66,0,1.33.06,2.16,3.42.39,4.73,3,5.7,5.87a3.27,3.27,0,0,1,.79-.3c.72,0,1.43.08,2.15.13a11.92,11.92,0,0,1-.65,2.23,24.71,24.71,0,0,1-1.85,2.6c3.24.13,3.93.81,3.15,2.07-.48-.47-1-1-1.55-1.48l-.38.25c0,.32,0,.64,0,1l-1-.21c-.22.73-.42,1.35-.61,2l-.29-.05c.08-.59.15-1.18.25-2l-4,.8c-.17-.33-.31-1.08-.74-1.32-2.69-1.48-2.83-4-2.76-6.56a17,17,0,0,0,.25-3c-.26-1.63.54-3.21.1-4.82l-.31.43L163,66.88,165.35,65c-.84-2.9-1.75-6.39-2.88-9.82a5.24,5.24,0,0,0-1.94-2.37c-2-1.42-2.67-3.52-3.61-5.63-1.24-2.77-2.24-6-5.65-7.09-2.89-.9-7.77.9-9.55,3.32a2,2,0,0,0-.44.93c-.26,3.57-.49,7.12-.74,10.91,1.16-1,2.1-1.86,3.14-2.58a4.62,4.62,0,0,1,5.33.22c1.36,1.23.7,2.69.35,4.1-.07.27-.17.53-.26.8l3.15-.95-2.42,2-3,1.52c.44.44.6.58.74.74.61.7,1.49,1.33,1.71,2.14.09.39-1.16,1.05-1.67,1.7a12.73,12.73,0,0,0-1,2.2c-.42-.61-1.1-1.28-1-1.46a7.68,7.68,0,0,1,1.68-1.5l-1.7-2.6c-1.51,1.09-3.33,1-5.27-1.06.06,1.32,0,2.06.13,2.79.75,4.5,1.56,9,2.31,13.5.17,1,.14,2.11.3,3.16.47,3.13-2,4.81-4.56,5.11-.69.09-8.41,2.09-9.1,2-2.52-.24-3.42-1.4-2.94-3.92.66-3.46,1.41-6.9,2.1-10.35.1-.5.13-1,.19-1.5-.69,0-1.62.2-1.75,0a3.08,3.08,0,0,1-.22-2c.39-2,1.27-3.9-.25-6.32l-2.72,7.2c-3.39.31-3.4-2.39-4.19-4.32-.53-1.29-.35-2.93-2-3.88a4.27,4.27,0,0,0-.54,1.48c.14,2.6-.23,5.31,1.57,7.57a1.93,1.93,0,0,1,.53,1.08c0,.65-.07,1.7-.41,1.86a2.73,2.73,0,0,1-2-.3c-.58-.32-.93-1-1.47-1.5-.24-.2-.7-.14-1-.2,0,.35,0,.82.19,1,3.68,3.89,4.49,8.69,4.55,13.78.05,3.42.29,6.84,2.4,9.74a4.29,4.29,0,0,0,2.28,1.75c3.28.52,13.63-.83,16.92-1,4.31-.18,6.23,3,5.8,6.1-.32,2.41-1.18,4.75-1.72,7.13a55.94,55.94,0,0,0-1.76,8.76c-.21,3.53-2,6.34-3.21,9.43a29.24,29.24,0,0,0-1.63,4.92,15.3,15.3,0,0,1-2.57,5.68,75.65,75.65,0,0,0-4.5,8.26c-.88,1.73-1.49,3.59-2.42,5.28-1.16,2.13-2.58,2.1-3.94.1-.28-.41-.63-.77-1-1.28-.1,1.72-.19,3.18-.28,4.84Zm47-74.41a2.82,2.82,0,0,0,.89-2.54c-1.32-2.72-1.8-6.16-5.79-7.37-.11,1.92-.2,3.7-.32,5.48a4.16,4.16,0,0,0,2.55,4.37A3.24,3.24,0,0,0,171.79,81.61Zm-13.71-35c.44,2.43,1.39,4.45,3.87,5.58C164.62,47.39,162.39,46.93,158.08,46.62ZM144,60.78a6.93,6.93,0,0,0,4.5-5.2c.12-.54-.18-1.61-.56-1.77-1.37-.58-2.9-1.73-4.12.08-2.33,1.24-2.29,3.36-2.22,5.4A1.67,1.67,0,0,0,144,60.78Z"/><path class="cls-3" d="M122.68,145.24c-.81.71-2.5.52-2.78,1.57l-.57-.29a10.61,10.61,0,0,0,.53-1.56c.43-1.56-.44-2.76-1.13-4,.55,3.78.55,3.78-.07,4.34-.54-.55-1.19-1.63-1.61-1.54-2,.37-1.14-.8-.81-1.75h-.61c-.29.74-.57,1.49-.91,2.38-.22-.26-.61-.55-.56-.69a1.87,1.87,0,0,0-1-2.48,1.48,1.48,0,0,1-.59-1c-.25-1.71-1.17-2.17-2.73-1.46a2.84,2.84,0,0,1-.19-.56c-.22-3.73-.36-7.46-2.46-10.78-.2-.29.23-1,.38-1.49.51.27,1.28.42,1.48.84.67,1.48,1.14,3.06,1.68,4.6.76,2.19,1.42,4.42,2.3,6.54.29.7,1.13,1.59,1.73,1.61a1.4,1.4,0,0,0,.88-.56l0,0c.29-.31.59-.69.87-1l-.08-.09c1.54-2.08,4-5.22,5.08-6.76a12.66,12.66,0,0,1-1,2.55,31.31,31.31,0,0,0-1.59,4.23c-.16.62,0,1.75.46,2a3.75,3.75,0,0,0,2.24-.06,10.73,10.73,0,0,0,1.77-.64c.08.15.18.3.27.46a15.77,15.77,0,0,0-2.61,2.62C120,143.87,122.14,144.17,122.68,145.24Z"/><path class="cls-3" d="M118.89,147.38c-.24.36-.9.46-1.36.68-.12-.51-.49-1.26-.29-1.47.76-.82.73-1.56-.17-2s-1.37,0-1.71,1.08c-.64,2-2.49,1.06-3.8,1.06-.5,0-1.23-1-1.45-1.75a13.6,13.6,0,0,1-.2-3.09,3,3,0,0,1-.9.56v0c-.2-1.89-.33-3.19-.48-4.48a4.27,4.27,0,0,1-.14-1.05,12.29,12.29,0,0,0-1.84-8.55,2.11,2.11,0,0,1-.24-1.53c.17-.6.56-1.42,1-1.55a2.13,2.13,0,0,1,1.93.5,36.32,36.32,0,0,1,2.08,5c.83,2.35,1.54,4.74,2.35,7.1a5.35,5.35,0,0,0,.87,1.18l1.66-1.38h0c.1.12-.7,1.17-.6,1.29h0a1.4,1.4,0,0,1-.88.56c-.6,0-1.44-.91-1.73-1.61-.88-2.12-1.54-4.35-2.3-6.54-.54-1.54-1-3.12-1.68-4.6-.2-.42-1-.57-1.48-.84-.15.51-.58,1.2-.38,1.49,2.1,3.32,2.24,7.05,2.46,10.78a2.84,2.84,0,0,0,.19.56c1.56-.71,2.48-.25,2.73,1.46a1.48,1.48,0,0,0,.59,1,1.87,1.87,0,0,1,1,2.48c0,.14.34.43.56.69.34-.89.62-1.64.91-2.38h.61c-.33.95-1.17,2.12.81,1.75.42-.09,1.07,1,1.61,1.54.62-.56.62-.56.07-4.34.69,1.25,1.56,2.45,1.13,4a10.61,10.61,0,0,1-.53,1.56A6.32,6.32,0,0,1,118.89,147.38Zm-8.3-1.53c1.56-.31,3.13,1.2,4.47-.86-1.29-.22-2-.72-1.52-2,.07-.2-.28-.57-.44-.85l-1.16-2c-.25-.42-.51-.84-.77-1.26l-.83.14C110.42,141.22,110.5,143.42,110.59,145.85Z"/><path class="cls-3" d="M115.06,145c-1.34,2.06-2.91.55-4.47.86-.09-2.43-.17-4.63-.25-6.84l.83-.14c.26.42.52.84.77,1.26l1.16,2c.16.28.51.65.44.85C113.09,144.27,113.77,144.77,115.06,145Z"/><path class="cls-3" d="M115.63,138.92l0,0h0S115.62,138.93,115.63,138.92Z"/><path class="cls-3" d="M115.63,138.92s0,0,0,0,.7-1.17.6-1.29l.21.21C116.11,138.26,115.85,138.62,115.63,138.92Z"/><path class="cls-3" d="M116.5,138c-.28.28-.58.66-.87,1,.22-.3.48-.66.79-1.06Z"/><path class="cls-3" d="M166,61.38l-.06,0h0a.15.15,0,0,1,0-.06Z"/><path class="cls-1" d="M162,52.2c-2.48-1.13-3.43-3.15-3.87-5.58C162.39,46.93,164.62,47.39,162,52.2Z"/><path class="cls-1" d="M148.53,55.58a6.93,6.93,0,0,1-4.5,5.2,1.67,1.67,0,0,1-2.4-1.49c-.07-2-.11-4.16,2.22-5.4,1.22-1.81,2.75-.66,4.12-.08C148.35,54,148.65,55,148.53,55.58Z"/></svg>