<svg id="Layer_1" data-name="Layer 1" xmlns="http://www.w3.org/2000/svg" viewBox="0 0 300 300"><defs><style>.cls-1{fill:#fff200;}.cls-2{fill:#fff;}.cls-3{fill:#00aeef;}.cls-4{fill:none;stroke:#00aeef;stroke-miterlimit:10;stroke-width:14px;}</style></defs><path class="cls-1" d="M150.74,288.72A123.28,123.28,0,0,1,27.6,165.58c0-19.19,10.83-52.45,62.43-101.91a569.12,569.12,0,0,1,60.71-50.13c18.64,13.26,123.15,90.41,123.15,152A123.28,123.28,0,0,1,150.74,288.72Z"/><path class="cls-2" d="M150.74,19.69a565.52,565.52,0,0,1,57.35,47.68c39.78,38.14,60.8,72.1,60.8,98.2a118.15,118.15,0,1,1-236.29,0c0-26.1,21-60.06,60.8-98.2a564.57,564.57,0,0,1,57.34-47.68m0-12.26S22.6,94.8,22.6,165.57a128.15,128.15,0,1,0,256.29,0C278.89,94.8,150.74,7.43,150.74,7.43Z"/><circle class="cls-3" cx="150.75" cy="166.09" r="28.81"/><circle class="cls-4" cx="150.75" cy="102.65" r="17.93"/><circle class="cls-4" cx="101.01" cy="211.63" r="17.93"/><circle class="cls-4" cx="201.25" cy="209.63" r="17.93"/><line class="cls-4" x1="150.75" y1="120.58" x2="150.75" y2="150.57"/><line class="cls-4" x1="137.7" y1="180.81" x2="117.74" y2="198.1"/><line class="cls-4" x1="166.51" y1="179.54" x2="187.29" y2="198.38"/></svg>