<svg id="Layer_1" data-name="Layer 1" xmlns="http://www.w3.org/2000/svg" viewBox="0 0 300 300"><defs><style>.cls-1{fill:#fff200;}.cls-2{fill:#fff;}.cls-3{fill:#00aeef;}</style></defs><path class="cls-1" d="M144.5,288.32A123.28,123.28,0,0,1,21.35,165.18c0-19.19,10.83-52.45,62.44-101.91a569.61,569.61,0,0,1,60.7-50.13c18.64,13.26,123.15,90.41,123.15,152A123.28,123.28,0,0,1,144.5,288.32Z"/><path class="cls-2" d="M144.5,19.29a565.64,565.64,0,0,1,57.15,47.49c39.9,38.23,61,72.25,61,98.4A118.15,118.15,0,0,1,61,248.72a117.41,117.41,0,0,1-34.6-83.54c0-26.1,21-60.06,60.8-98.21A564.4,564.4,0,0,1,144.5,19.29M144.5,7S16.35,94.4,16.35,165.18a128.15,128.15,0,0,0,256.29,0C272.64,94.4,144.5,7,144.5,7Z"/><path class="cls-3" d="M92.84,162.27c-.17.56-.34,1.11-.52,1.66,0,.35-.12.73-.19,1.13h0C92.5,163.63,92.71,162.77,92.84,162.27Z"/><path class="cls-3" d="M92.84,162.27a2.76,2.76,0,0,0,.08-.27C93,161.68,93.07,161.35,92.84,162.27Z"/><path class="cls-3" d="M173.58,149.14Z"/><path class="cls-3" d="M173.58,149.14s0,0,0,.05l.11.12.13,0Z"/><polygon class="cls-3" points="227 161.7 227 161.7 227 161.7 227 161.7 227 161.7"/><path class="cls-3" d="M255.44,158.8a9.88,9.88,0,0,1-1.14.27l.9-2.16c-.2-.27-.37-.73-.6-.76-2.75-.37-5.72-1.48-8.23-.83-6.56,1.71-12.92,4.2-19.36,6.38,4,.9,7.65-.47,11.24-1.89,2.48-1,4.82-2.3,7.24-3.42.2-.1.58.11.85.24a5.73,5.73,0,0,0,1.37.7l-5,2a2.76,2.76,0,0,0-1.73.16,3.74,3.74,0,0,0-.86.87l-2.92,1.17c-.24-.21-.51-.4-.74-.61a6.77,6.77,0,0,1-1,1.32,3.54,3.54,0,0,1-1.69.81c-2.08.18-4.17.18-6.25.33-.36,0-.69.51-1,.78a2.55,2.55,0,0,1,.6.41c.8,1,2.23,2,2.2,2.95,0,1.28-1.26,2.51-1.89,3.8a4.31,4.31,0,0,0-.27,1.62c0,.86.1,1.73,0,2.59s-2.07,2,.61,1.87c.14,0,.47.47.42.63-.6,1.89-1,4-2,5.61-1.89,3.08-2.15,3.1-4.68,1.14a8,8,0,0,1-1.89-3.28c-.45-1.07-.63-3.21-1-3.21-2.21,0-3.18-1.83-4.69-2.63-3.18-1.69-1-2.19.1-3.21a5,5,0,0,0,.5-.68c-.18,0-.4-.14-.54-.08-1.84.83-3.68,1.68-5.6,2.57l2.4.73c-.18.28-.29.71-.53.81a6,6,0,0,1-2.62.75,23.09,23.09,0,0,1-3.5-1.15c-.62-.18-1.48-.43-1.92-.15-.71.44-1.13,1.32-1.73,2-.45.48-1,.87-1.5,1.31a11.49,11.49,0,0,0-.31-1.55c-.09-.27-.47-.44-.58-.72a7.48,7.48,0,0,1-.61-2c-.11-1.26,0-2.54-.12-3.82a2.16,2.16,0,0,0-.9,0c-.44.12-.83.46-1.27.54a10.45,10.45,0,0,1-3.21.33c-.53-.08-1.08-1.6-1.34-1.52a59.46,59.46,0,0,0-6.13,2.28c-.42.18-.65.79-1,1.2.46-.23.94-.45,1.4-.7.9-.49,1.8-1,2.7-1.51-.4.89-.81,1.78-.92,2,.91.59,1.87,1.17,2.77,1.85.15.12.06.62,0,.94,0,.1-.27.23-.4.22-.89-.07-1.77-.19-2.66-.26a8.52,8.52,0,0,1-2.8-.2,27.42,27.42,0,0,1-4.24-2.63c-.48-.34-1.16-1.09-1.05-1.45.84-2.78-1.46-3.52-2.91-4.87a2.44,2.44,0,0,1-.77-1.69c.08-1,2.12-2.46-.78-2.68-.28,0-.49-.71-.76-1.05a2,2,0,0,0-.51-.32c-.63,1.08-1.57,2.08-1.82,3.24a56.11,56.11,0,0,0-.67,6.3,2.93,2.93,0,0,1,.76-.55,5.32,5.32,0,0,1,1.15-.2c0,.3,0,.76-.12.86-2.4,1.53-4.78,3.13-7.29,4.46-1.23.66-2.75.73-4.08,1.23-1.06.4-2.36,1.79-1.91-.9,0-.08-.29-.34-.4-.32-3.21.72-1.52-1.83-1.92-2.94-.12-.33.22-.82.36-1.24a10,10,0,0,1-1.14.45c-.65.17-1.31.28-2,.42a19.06,19.06,0,0,0,.28-2.11c0-1,0-2-.07-3-.51.15-1,.34-1.52.44a2.31,2.31,0,0,1-.81-.12c.09-.3.09-.72.3-.88,2.22-1.74,4.47-3.44,6.71-5.15l-.51,2a8.33,8.33,0,0,1,1.44-.58,10,10,0,0,1,1.33.06,10.92,10.92,0,0,0,1.26-.18,2.47,2.47,0,0,1-.18.78c-.28.5-.63,1-1,1.44l1.33-1.27a5.29,5.29,0,0,1,.72-.7c.46-.29,1-.52,1.46-.78,0,.52-.06,1-.08,1.56,0,.31,0,.63,0,1a1.45,1.45,0,0,0,.57-.11c.48-.33.92-.71,1.38-1.07-.08.77-.19,1.53-.21,2.3a8.37,8.37,0,0,0,.22,1.39c.41-.28,1.07-.47,1.19-.84.47-1.43.74-2.92,1.15-4.37,1.19-4.21,4.49-6.63,7.79-9a1.33,1.33,0,0,1,1,0,3,3,0,0,1,0,1.29c-.4,1.55-.87,3.09-1.28,4.64,0,.17.1.4.15.6a24.72,24.72,0,0,1,2.68-1.54,28,28,0,0,1,3.38-1s.29.35.25.46a31.8,31.8,0,0,1-1.82,4.38,31.32,31.32,0,0,1-2.47,3,12.5,12.5,0,0,0-1,2A16.11,16.11,0,0,0,179,165c1.18-1.13,2.15-2.58,3.51-3.36.67-.38,2.06.4,3.07.8.28.11.37.72.54,1.1a7.78,7.78,0,0,0,1,2.09,18,18,0,0,0,3.7,3.29c1.23.73,3.05,1.57,4.12,1.14,1.36-.54,2.22-2.32,3.29-3.57-.24-.12-.59-.17-.69-.36-.29-.55-3.48,1.41-1.17-1.34a2.27,2.27,0,0,0-.71-.33c-1-.12-2.06-.19-3.09-.27.79-.5,1.55-1.05,2.37-1.48a8.49,8.49,0,0,1,1.6-.49c-.52-.78-1.06-1.55-1.53-2.36a2.08,2.08,0,0,1-.12-.91c0-.36.21-.87,0-1-1.06-1.08-2.25-2-3.24-3.14-.22-.26.12-1.14.39-1.63a1.13,1.13,0,0,1,1.05-.19c1.75,2,5.11,3.2,4.22,6.72-.29,1.13,2.08,2.13,0,3.09a2.77,2.77,0,0,0,.59.31,11.61,11.61,0,0,0,1.31.24c1.37.2,2.75.39,4.12.57.44.06.89.06,1.33.08-.13.53-.1,1.22-.43,1.54a23.17,23.17,0,0,1-2.58,1.9,7.06,7.06,0,0,0,1.94-.69,10.81,10.81,0,0,1,1.73-.34,9.17,9.17,0,0,1-1.27,1.15c-1.84,1.15-3.72,2.26-5.59,3.38a38,38,0,0,1,6.44-1.62,9.87,9.87,0,0,1,1.22-.06,4.84,4.84,0,0,1-.84.95c-2.18,1.39-4.39,2.73-6.57,4.13-.25.16-.34.57-.51.87a7,7,0,0,0,.87-.42c2.78-1.82,5.55-3.66,8.35-5.46a3.33,3.33,0,0,1,1.12-.23,4.47,4.47,0,0,1-.62,1c-1,.92-2,1.77-3,2.68a2.25,2.25,0,0,0-.35.75c.29-.08.66-.07.87-.25,1.32-1.16,2.59-2.39,3.92-3.53.2-.18.65-.07,1-.09-.12.29-.16.65-.37.85-1.26,1.23-2.57,2.41-3.82,3.64a3.09,3.09,0,0,0-.48,1,5.51,5.51,0,0,0,1-.34c2.56-1.4,5.21-2.66,7.64-4.25,4.3-2.82,8.45-5.84,12.66-8.78a8.41,8.41,0,0,0-1.59.29c-7.85,2.93-15.75,1.77-23.66.29a.63.63,0,0,1-.11-.51c1-1.09,2.62-2,2.87-3.26.34-1.73-.33-3.67-.57-5.53-.23.11-.47.19-.69.31-.62.36-1.22.74-1.83,1.11,0-.42.2-.93,0-1.24a44.44,44.44,0,0,0-3.28-5.15c-.15-.19-1.59.63-2.44,1-.38.14-.76.25-1.14.37l.75-1-1.05-.1c.47-.39.91-.81,1.4-1.17s1-.65,1.52-1c-.71.16-1.43.31-2.14.49-.19.05-.35.24-.54.31s-.67.22-1,.32c.24-.26.49-.51.71-.78.58-.7,1.14-1.41,1.71-2.11a21.19,21.19,0,0,0-3.86-1.37c-.79-.12-1.69.49-2.54.77.86-.43,1.73-.85,2.59-1.29.29-.14.56-.31.84-.47-.11-.16-.2-.43-.34-.46a2,2,0,0,0-1.16,0c-1.09.65-2.08,1.47-3.19,2.09a5.51,5.51,0,0,1-1.77.31c.33-.43.64-.87,1-1.27a12.49,12.49,0,0,1,1.25-1,8.3,8.3,0,0,1-1.45.68c-.85.1-1.71.14-2.56.2l1.62-1.23c.41-.31.82-.64,1.23-1L186,141l-1.85.75a8.24,8.24,0,0,1,1.43-1.89,6.72,6.72,0,0,1,2.07-.68c.18-.06.35-.14.52-.21a3.89,3.89,0,0,0-.25-.4c-1.72-1.82-3.49-3.08-5.79-.79a5,5,0,0,1-1.76,1.19,4.39,4.39,0,0,1-1.67-.11,5.63,5.63,0,0,1,.73-1c.73-.63,1.54-1.16,2.26-1.8a18.21,18.21,0,0,0,1.42-1.49c-1.05-.11-2.23-.58-3.11-.25-1.86.68-3.54,1.84-5.34,2.7-.37.18-.95-.08-1.43-.14a5,5,0,0,0,.72-.9,2.46,2.46,0,0,0,.11-.95c0-.41-.2-1,0-1.19a29.41,29.41,0,0,1,2.37-1.9c-1,.59-1.95,1.22-3,1.75a17.28,17.28,0,0,1-2.14.84c.31-.86.61-1.72.94-2.56.07-.18.28-.29.43-.43a1,1,0,0,0-.33-.06l-5.64,1.44a9.38,9.38,0,0,1-1.3.12l.67-.8c.45-.53.9-1,1.36-1.57-.47.12-.93.25-1.4.35-.08,0-.19-.09-.29-.14.09-.18.15-.47.29-.52,1.8-.57,2.5-4.23,5.52-1.65,1.12,1,3.25.74,4.92,1,.12,0,.27-.11.41-.17-.19-.19-.35-.48-.57-.54-2.52-.7-5-1.45-7.58-2a7.84,7.84,0,0,0-3.11.21c-1.92.42-3.81,1-5.7,1.5-.44.13-.84.4-1.28.52-.83.24-2,.15-2.46.68a33.1,33.1,0,0,0-3.37,4.49c-1,1.45-.89,1.47.39,1.87.24.08.36.54.61.63s1.06.26,1.19.09a16.51,16.51,0,0,0,1.13-2.17c-.18,0-.35.07-.53.09l-.79.1c.53-1.23,1.07-2.46,1.6-3.7a4.19,4.19,0,0,1,.59.42.56.56,0,0,1,.17.45c-.5,1.71-.68,3.67-1.69,5-.7.93-2.54,1-3.88,1.45-.3.1-.9.06-.9.11-.08,1.05.21,2.27-.23,3.1-.28.52.43,3.44-2,1.5-.08-.06-.46.15-.61.31-1.92,2-3.83,4.05-6.32,6.71l2.78-.43-.86,1.36c-.11.17-.34.38-.31.51.71,2.29-.68,3.53-2.28,4.74s-3.26,2.63-4.88,4a2.55,2.55,0,0,0-.41.6c.26-.05.58,0,.76-.16,1.69-1.31,3.34-2.67,5-4a2.43,2.43,0,0,1,.89-.23,2.61,2.61,0,0,1-.43.77c-1.81,1.57-3.64,3.1-5.44,4.67-.19.16-.25.47-.37.72a2.13,2.13,0,0,0,.79-.19c2-1.48,3.92-3,5.92-4.48a3.71,3.71,0,0,1,1.21-.33,4.38,4.38,0,0,1-.68,1.06c-2.68,2.3-5.38,4.58-7.71,6.55.11-.16.55-.82,1-1.49a3,3,0,0,0,.22-.44c-.15,0-.32-.1-.43,0-2.76,1.33-.54-2.08-1.94-2,.43-1.46.86-2.91,1.28-4.37a5.69,5.69,0,0,0,.08-.83,4,4,0,0,0-.92,0c-1.15.32-2.33,1-3.44.95-2.5-.19-2.83,1-2.59,3a18.79,18.79,0,0,1-.21,2.88,1.73,1.73,0,0,0,.32,1c3.26-.33,1.7,1.82,1.45,3a30,30,0,0,1-1.83,5.91c-.37.84-1.55,1.33-2.36,2,.14-.64.28-1.28.41-1.93a5.54,5.54,0,0,0,.07-.57,2.43,2.43,0,0,0-.6,0c-1.45.28-2.9.55-4.34.89-.85.21-2.19,1.18-1-.91.16-.27-.46-1-.71-1.51,0,0,0-.07.07-.1.56-.84,1.13-1.67,1.69-2.5.26-.38.53-.75.79-1.12-.38.07-.94.34-1.1.19a1.75,1.75,0,0,1-.45-1.21c0-.89,2-1.84-.22-2.71-.32-.12-.09-1.68-.09-2.57,0-.28.17-.55.18-.83,0-1-.26-2.08.13-2.85,1.12-2.22,2.57-4.27,3.79-6.45s4-3.19,4.44-6.19l3.21-.37a3.62,3.62,0,0,0-.22.32c-.06.09,0,.29.09.43.26-.1.51-.23.78-.31,1-.3,1.94-.56,2.9-.86h0L148,143.7l-13.61-3.41,4.69-4.75a4.53,4.53,0,0,1,.38.38,7.79,7.79,0,0,0,1.16-1.94c.09-.35-.48-.88-.73-1.28l0,.05-1.81-3-4.9-.24v-.12c0-.31-.65-.62-1-.91,0,0-.3.15-.29.23a6.23,6.23,0,0,0,.09.74l-2.17-.1-.29-.16v.14l-2-.09-2.13-.16c.65-.4,1.32-.78,2-1.13a9.69,9.69,0,0,1,1-.44l-1.26-1a30,30,0,0,0-2.6,2,.65.65,0,0,0-.12.47l-2.18-.16c.24-.55.5-1.16.74-1.78,0-.11-.27-.51-.44-.52a44.74,44.74,0,0,1-5.93-.43,5.74,5.74,0,0,0-4.8.89l-2.67-.52c-1.8-.57-3.42-.58-4.94,1.09-.78.85-2.45.83-3.63,1.37-1.46.67-2.82,1.54-4.25,2.28-1.09.56-2.3,1.6-3.32,1.47-2.73-.36-3.2,1-3.19,3l-.58.61c-.18.11-.32.22-.35.36-1.06,5.1-2.77,10.24.85,15.1a6.5,6.5,0,0,1,.61,2c-.63,0-1.27,0-1.9.06-.26,0-.6,0-.75.15a23.53,23.53,0,0,0-2.91,3.17c-.58.83-1.22,2.09-1,2.92.63,2.15,2.54,4.22,2.43,6.24-.16,3.15,1.35,2.47,3.07,2.29.27,0,.56.24.84.37a2.52,2.52,0,0,1-.34.6c-.28.31-.61.57-.92.86.65.25,1.3.5,3.2-4.71.05-.26.1-.51.14-.75l-.19.05c.12-.4.25-.79.38-1.18.58-3.8,0-4.12,0-4.32a2.64,2.64,0,0,1,1-1.41c.73-.57,1.58-1.4,2.37-1.39,2.78,0,3.08,2,1,5.54-.14.23.28.88.56,1.26a10.33,10.33,0,0,0,1.17,1.22c-1.62,1.55,1.41,4.2-1.3,5.51-.06,0-.06.34,0,.38.43.31.89.58,1.35.86a8.41,8.41,0,0,0-1.59.6,2.36,2.36,0,0,0-1.07,1c-.66,2-2.07,2.23-3.09.76s-1.81-3.44-1.52-5,2.1-2.63,3.24-3.93l.47-.54c-.27,0-.54.07-.8.13-.65.13-1.29.28-1.93.42q-.09.34-.18.75c-1.75,5.92-2.24,6.38-2.74,6.83-.12.11-.25.21-.38.31.13,0,.35,0,.38.08a4.87,4.87,0,0,1,.67,1.7c0,.37-.5.76-.77,1.15-.39-.29-.91-.5-1.12-.88-.28-.53-.22-1.26-.52-1.79a4.9,4.9,0,0,0-1.25-1.08,4,4,0,0,0,0,1.28c.29.82.75,1.58,1.06,2.39.07.2-.14.5-.23.75-.17-.09-.44-.14-.49-.27-.59-1.6-1.23-3.19-1.68-4.83-.17-.62.39-1.71.08-2a9.63,9.63,0,0,0-3.32-2c-1.83-.57-3.8-.7-5.67-1.17A4.09,4.09,0,0,1,73.87,165c-.24-.31.23-1.22.43-1.84a7,7,0,0,0,.69-2c0-1-.8-2-.58-2.86.63-2.38,1.58-4.68,2.44-7,.11-.27.42-.46.63-.69a3.26,3.26,0,0,0-.94.05c-6.41,2.1-12.81,4.25-19.23,6.32-3.61,1.16-7.87,1.36-10.76,3.46A59.85,59.85,0,0,0,35.22,172c-2.9,3.72,0,9.34,4.63,10.32l7,1.72,21,4.77c4,.3,7.94.35,11.85.95a6,6,0,0,1,3.87,2.73c1.8,3.35,1.91,7.86,6.8,8.82.24,0,.4.42.64.57a47.85,47.85,0,0,0,6.61,4,20.46,20.46,0,0,0,3.91,1L106,208.1c2,.8,4,1.75,6.15.65l1.69-.46a33.43,33.43,0,0,0,4.85,1.07c1.63.13,3.28-.28,4.92-.3,2.8,0,2.07-1.93,2-3.5a6,6,0,0,0-.32-1.15l-8.66-12.84s.12-.25.21-.27c2.6-.65,5.24-1.15,7.79-1.94,3.43-1.05,6.79-2.36,10.2-3.5,1.92-.64,3.86-1.22,5.81-1.72a8.56,8.56,0,0,1,3-.35c1.47.16,3.27-.37,3.62,2.2a100.84,100.84,0,0,0,2.28,10.81c.21.85,1.29,2.28,1.61,2.19,2.21-.64,3.23.49,4.25,2.14a4.1,4.1,0,0,0,2.1,1.22,12,12,0,0,0,3.75,1.06c2.56,0,5.12-.27,7.68-.48.2,0,.32-.5.55-.66a2.8,2.8,0,0,1,1.17-.58q.72-.08,1.44-.12l.75,1,3.81-.84,5.08-2s.11,0,.18,0l3.25-.42c-.15.66-.3,1.33-.44,2,0,.11.21.27.32.4l2.14-2.68-2.67-8.28c.06.17.36.28.54.42a22.4,22.4,0,0,0-.12-3.58c-.11-.59-.81-1.06-1.41-1.79l-8.91-5.34c.66-.13,1.32-.26,2-.36a8.33,8.33,0,0,1,1.5-.07c8.5.26,17,.3,25.48.87,4.63.32,9.56.32,13.25,4.1,4.24,4.35,8.39,8.83,12.93,12.85,2.72,2.41,6.09,4.09,9.24,6a6.25,6.25,0,0,0,2.42.25l8.22-5.61-1.2-6.7.1-.83-.25-.07-.68-4.15c.31.29.56.56.7.69l.33,1.38c.35-.76.7-1.53,1-2.31,0,0-.22-.21-.35-.29-.53-.31-1.35-.37-1.9-.66l-.31-1.93,1.81-6.16s4.95-5.65,5-6.06c0,0,0-.41,0-.41h0c0-2,0-10.85,0-10.85.22-.27,1.07,0,1.56-.12C255.54,160,255.43,159.24,255.44,158.8ZM37.54,177.65c-.47,0-1-.66-2.37-1.75,1.14-.57,1.94-1.3,2.44-1.13s1.07,1.12,1.27,1.82C39,176.82,38,177.64,37.54,177.65Zm74.69-19.38,2.22-.79c-.54.56-1.09,1.11-1.63,1.68-.23.25-.41.54-.62.81a5.5,5.5,0,0,1,1-.17,5.17,5.17,0,0,1,1,.26c-1.23,1.6-2.45,3.21-3.71,4.79a11.59,11.59,0,0,1-1.36,1.25,39.18,39.18,0,0,0,4.54-3,2.77,2.77,0,0,1,.91-.2c0,.19.13.45,0,.56-1.07,1.41-2.12,2.84-3.27,4.19-.83,1-1.8,1.86-2.71,2.79l3.15-2.19a3,3,0,0,1,.62-.43,5.61,5.61,0,0,1,1-.17c-.11.33-.12.75-.35,1-1.28,1.29-2.62,2.53-3.94,3.79a22,22,0,0,0,3.45-2.2c.25-.17.66-.11,1-.16-.12.32-.15.73-.36.95-1,1-2,1.87-3,2.83a7.45,7.45,0,0,0-.69.95l1.08-.55,2.82-1.42c-.64.83-1.28,1.66-1.93,2.48-.33.42-.67.83-1,1.24.5-.24,1-.5,1.5-.71s1-.41,1.56-.62a3.82,3.82,0,0,1,.14.56c.17,1.87.31,3.75.5,5.63a4.16,4.16,0,0,0,.45,1.05c-.37-.37-.73-.76-1.12-1.11-.92-.8-1.82-1.62-2.8-2.34-.66-.47-1.77-.59-2.09-1.19a9.8,9.8,0,0,1-.52-3c0-.08-.29-.14-.45-.18s-.59-.14-.89-.21a5,5,0,0,1,.37-1,8.65,8.65,0,0,1,.88-1,4.47,4.47,0,0,1-1.19.35c-.27,0-.81-.36-.78-.48.19-1,.49-2.06.74-3.09.41-1.68.82-3.35,1.2-5,0-.07-.24-.2-.37-.29-.84-.57.11-2.55-1.79-2.29.32-.32.64-.64.94-1a1.31,1.31,0,0,0,.2-.39c-.12,0-.31,0-.34,0-.17-.27-.48-.62-.41-.83a10.38,10.38,0,0,1,.86-1.56,13,13,0,0,1-1.51.12.74.74,0,0,1-.57-.32c-.62-1.12-1.18-2.28-1.8-3.4-.08-.13-.4-.1-.58-.19a14.16,14.16,0,0,1-2-1.11c-.09-.07.25-.69.33-1.07.13-.64.22-1.28.32-1.92-.45.26-.89.54-1.35.77a1.75,1.75,0,0,1-.57.11,1.92,1.92,0,0,0,.07-.58c-.11-.64-.2-1.28-.31-1.92l1.57-.19.06.15c.13-.07.32-.14.47-.21l1.51-.18c-.1.47-.21,1-.35,1.57,0,.08.13.19.2.29.62-.69,1.61-1.41,2.19-2.1l1.09-.13-3.72,3.85a1.57,1.57,0,0,0-.3.39,9.55,9.55,0,0,0,.85.94l-.26.19c-.18.13-.21.48-.31.73a2.31,2.31,0,0,0,.79-.28c1.54-1.3,3-2.64,4.57-3.93.21-.18.57-.16.86-.24a2.41,2.41,0,0,1-.38.73c-.94.9-1.91,1.76-2.86,2.66a1.88,1.88,0,0,0-.27.53c.14,0,.33.07.42,0,2.26-1.55,4.51-3.13,6.77-4.67a2.82,2.82,0,0,1,.85-.26,2.94,2.94,0,0,1-.45.82c-2.24,2-4.51,4-6.75,6a3,3,0,0,0-.45.68,2.56,2.56,0,0,0,.76-.29c1.47-1.18,2.9-2.41,4.39-3.57.77-.6,1.62-1.09,2.44-1.62-.23.76-.47,1.51-.7,2.28a2.08,2.08,0,0,0-.11.74,10.83,10.83,0,0,0,.19,1.09,5.48,5.48,0,0,0,.48-.93c.33-1.13.6-2.27.94-3.39.08-.23.37-.4.56-.6.16.17.39.3.49.5,1.24,2.48-.12,6.59-2.58,7.91a6.73,6.73,0,0,0-1.08.93Zm-2.47-10.72c-2.37,1.6-4.66,3.33-7,5,1.32-1.68,2.6-3.29,3.84-4.92,0,0,0-.15,0-.27l4.49-.53A6.25,6.25,0,0,0,109.76,147.55Zm10.75-18.78h-.11S120.45,128.75,120.51,128.77Zm-29.37,5.54a3.14,3.14,0,0,1,.8-.33l-.8.33-.79.81A2.55,2.55,0,0,1,91.14,134.31ZM89,139.94l.37,5A16,16,0,0,1,89,139.94Zm6.38,45.69c1.11-1.17,2.33-2.23,3.42-3.41.18-.19-.09-.83-.2-1.24a2.65,2.65,0,0,0-.33-.62l.57-.08,2.19-.42a28.14,28.14,0,0,0-.88,3.45c-.25,1.9-.91,2.71-2.73,1.42-.31.7-.62,1.41-.94,2.11-.09.2-.21.38-.4.71a3.71,3.71,0,0,1-.65-.9C95.36,186.33,95.25,185.8,95.42,185.63Zm-4.2-8.15,2.92,2.73a9.14,9.14,0,0,1-.69.6c-1-.85-1.91-1.73-2.83-2.63C90.61,178.16,91,177.72,91.22,177.48ZM42.34,171.8a2.45,2.45,0,0,0,.57-1.76c-.19-2.81,1.18-3.81,3.62-5.33,2.76-1.72,2.17.91,3.1,1.09s1.89-.74,2.74-1.33S54.14,163,55,162.23c.06,0,.36.23.93.61-1.3,1.21-2.38,2.2-3.44,3.2a3.1,3.1,0,0,0-.6.75c-.44.84-.63,2-1.3,2.51-2.34,1.88-4.58,1.52-6.54-.75-.14-.17-.41-.22-.62-.33-.06.3-.12.6-.19.89-.31,1.31-.53,2.64-1,3.91a6.91,6.91,0,0,1-1.16,1.64c-.19-.83-.38-1.65-.56-2.48C41.2,172.07,42,172.15,42.34,171.8ZM75,183.19a6.13,6.13,0,0,1-6.94,5.1l1-2.89a.27.27,0,0,0,.21,0,39.64,39.64,0,0,0,3.76-3.8c.33-.42,2.36-1.69-.2-2.15-.09,0-.19-.41-.16-.61.16-1.25.31-2.52.56-3.75a7.77,7.77,0,0,1,.68-1.61c.82.7,1.91,1.24,2.4,2.12C77.82,178.36,75.51,180.65,75,183.19Zm4.57,2.26a6.39,6.39,0,0,0,.36-1.62c-.06-2.17-.21-4.34-.31-6.51a5.91,5.91,0,0,1,.11-.92,5.73,5.73,0,0,0,.8.46c3.14,1.26,1.83,4.65,3.11,6.82A32,32,0,0,1,80.54,186Zm3.31,3a3.46,3.46,0,0,1,.42-.67c1.28-1.29,2.88-2.39,3.77-3.91.75-1.29.7-3.06,1-4.62a8.57,8.57,0,0,0,0-1.34l1.83,2.32c-.35,1-1.29,2.76-1,3,1.91,1.63.47,2.35-.64,3.06a47.7,47.7,0,0,1-4.51,2.43C83.52,188.79,83.15,188.51,82.87,188.41Zm7.64,12.3-.28-.41.43.28Zm11.94-12.45c.06-.38.86-.61,1-1a26.46,26.46,0,0,0,.5-3c.08-.46.19-.92.51-2.43,1.28,1.47,2.38,2.22,2.28,2.71a14.08,14.08,0,0,1-1.75,3.73c-.18.32-.83.33-1.16.62a8.12,8.12,0,0,0-1.06,1.27A6.12,6.12,0,0,1,102.45,188.26Zm13.62,1.49c-2.43-1.78-7-.86-7.41-5.05-.29-2.72-2.51-2-3.64-3-1.6-1.44-2.44-3.74-3.58-5.68,0-.07.16-.39.18-.38a1.76,1.76,0,0,1,.65.3c3.16,2.74,6.35,5.44,9.42,8.28.54.5.56,1.57.82,2.38l-1.45-.07c-.06,0-.12.07-.18.1.24.28.44.68.74.81a2.77,2.77,0,0,0,1.22.05,19.35,19.35,0,0,1,3.28-.27c.39,0,.71.92,1.25,1.68C116.83,189.24,116.19,189.85,116.07,189.75Zm-1.39-43.31,7.75-.91a3.35,3.35,0,0,1-.55.31c-1,.43-2.16,1.13-3.19,1C117.35,146.78,116,146.53,114.68,146.44Zm33.46,21.74c-1.11,2.34-2.2,4.69-3.39,7a6.44,6.44,0,0,1-1.44,1.41c-.47-.74-.93-1.49-1.34-2.14V173c-.29.21-.57.45-.88.64-.79.47-1.58.91-2.37,1.37a15.29,15.29,0,0,1-.21-3.22,12.19,12.19,0,0,1,1.07-2.72c-.85.5-1.7,1-2.57,1.5a4.08,4.08,0,0,1-.69.26c-.17-.93-.84-2.26-.45-2.73,2-2.5,4.36-4.78,6.61-7.12.19-.2.58-.21.88-.31-.12.31-.27.6-.37.92-.18.54-.33,1.1-.48,1.66.35-.32.71-.64,1.05-1,.12-.11.17-.31.3-.4.94-.63,1.9-1.24,2.85-1.85.25,1.08.52,2.16.74,3.26.26,1.38.48,2.76.7,4.15A1.27,1.27,0,0,1,148.14,168.18Zm19.37-22.47c-.71.12-1.44.16-2.17.22h-.24l-.33.63a25.12,25.12,0,0,0-3.54-2.33,9.56,9.56,0,0,0-2.92-.33l-2.59-.27c.56-.61,1.08-1.26,1.69-1.81a1.15,1.15,0,0,1,1-.12A45.06,45.06,0,0,1,163,143.5a25.3,25.3,0,0,1,3,2c.1.07.23.17.32.15.54-.12,1.07-.27,1.61-.41C167.84,145.38,167.7,145.68,167.51,145.71Zm-8.25-8.56a37.91,37.91,0,0,1,3.11-3.1s1.26.91,1.19,1.09c-.6,1.42-1.37,2.77-2.09,4.14l-1.54-1.22C159.7,137.74,159.21,137.2,159.26,137.15Zm10,9.38a9.49,9.49,0,0,1,1.58-1.06c.14-.07.55.47.89.79-.32.58-.53,1-.73,1.33Zm5,3.32c-.06,0-.3-.3-.52-.54l-2.57-.39c.13-.23.21-.6.4-.67a19.27,19.27,0,0,1,2.59-.77,2.65,2.65,0,0,1,1.31.09,9.39,9.39,0,0,1,1.4.66C176,148.78,175.15,149.35,174.26,149.85Zm6.45,2.87a14.34,14.34,0,0,1-3-1.59c.34-.62.54-1.39.86-1.45a3,3,0,0,1,1.6.53,28.22,28.22,0,0,1,2.53,1.38c.22.14.3.52.45.79A6.63,6.63,0,0,1,180.71,152.72Zm11.14,4.66-1.94-.46c-1.66-.37-3.33-.71-5-1.12a3.38,3.38,0,0,1-.95-.64l.72-.54a43.48,43.48,0,0,1,5.76.85C191.05,155.63,191.39,156.71,191.85,157.38Zm-27.28-19.6a1.79,1.79,0,0,1,1.53-.27c2.52,1.26,4.92,2.76,7.47,3.93s5,2.46,7.6,2.78c1.77.22,1.78.91,2.22,2,.12.3,1.74-.21,2.3.19a15.09,15.09,0,0,1,2.36,2.65c.56.66,1.14,1.3,1.09,1.24,1.34.34,2,.4,2,.52a5.54,5.54,0,0,1-.11,1.86,1.44,1.44,0,0,1-1.06.05c-.81-.46-1.55-1-2.32-1.58-.18-.13-.33-.37-.51-.39a7.51,7.51,0,0,0-1.16,0c.28-.34.56-.67.82-1a4.21,4.21,0,0,0,.29-.51l-.46-.14c-1.54-.59-4.15-.87-4.41-1.82-.74-2.62-3.13-.86-4.13-2.14-.05-.08-.23-.05-.36-.07,1-2.23-.95-.75-1.37-1-.86-.41-2.06-.12-2.92-.53-3-1.4-5.86-3-8.74-4.54A1.48,1.48,0,0,1,164.57,137.78Zm-7.6-1.95c1.29-1.21,2.65-2.36,3.93-3.57.13-.12-.08-.6-.14-.91-.1-.49-.44-1.26-.25-1.43a11.9,11.9,0,0,1,2.07-1.3l1.29.27a5.45,5.45,0,0,1-.62,1.61c-1.74,2.06-3.54,4.08-5.36,6.07-.18.19-.66.1-1,.14C156.91,136.41,156.81,136,157,135.83Zm-2,4.13,1.36,1.29c-1,.77-2,1.55-3.06,2.29,0,0-.25-.3-.63-.8Zm-1.37,11.57a1.57,1.57,0,0,1,.31-.08c-.13.3-.27.59-.39.88l-.84,1.95c.54-.43,1.07-.88,1.62-1.3.37-.29.77-.53,1.16-.79-.28.37-.59.73-.85,1.12-.41.6-.8,1.21-1.19,1.81.12,0,.31.15.36.1.55-.48,1.05-1,1.59-1.48,2.11-1.9.42-2.8-1-3.8-.16-.12-.18-.42-.27-.63.47-.17,1.3-.57,1.36-.47,1.84,2.82,4.26.47,6.36.67,1.36.13,2.79-.49,5.26-1-2.19,1.36-3.61,2.25-5,3.12-.52.32-1.06.6-1.6.9.35.19.91.3,1,.57a15.14,15.14,0,0,1,.37,2.35c-.29-.15-.7-.49-.83-.4-.9.59-1.74,1.27-2.59,1.93,0,0,0,.14,0,.21.33-.15.65-.33,1-.45s.75-.2,1.13-.3a5,5,0,0,1-.25,1.25c-.56,1.1-1.18,2.16-1.78,3.25,1-3.12-.32-3.27-2.87-2.48-1,.31-2.28-.13-3.43-.24a.79.79,0,0,1-.45-.18C150.79,157.21,152.15,152.36,153.57,151.53Zm-3.26,32.68-1.11.93C149.57,184.82,149.89,184.35,150.31,184.21Zm6.64,17v-.08l.51.52C157.28,201.49,157,201.36,157,201.19Zm68.65-10.66a3.1,3.1,0,0,0-.81-.28c.19-.25.34-.69.56-.73l.67,1.28ZM239,203.09a14,14,0,0,1-1.74-1.07l-.3-.25,2.13,1.14Z"/><path class="cls-3" d="M154.29,170.45c-.07.08.19.45.3.68l5.07-3.61c-1.19-.57-1.8-1-1.9-.9C156.55,167.85,155.41,169.14,154.29,170.45Z"/><path class="cls-3" d="M192.3,140.2a1.32,1.32,0,0,0,.57.09c0-.15,0-.37-.08-.45-1.84-1.53-3.69-3-5.54-4.57-.31.15-.62.21-.71.38a.66.66,0,0,0,.14.63C188.54,137.61,190.42,138.91,192.3,140.2Z"/><path class="cls-3" d="M168.94,164.44q-1.71,2-3.38,4a2.31,2.31,0,0,0-.26.78c.15,0,.36.05.45,0,1.45-1.23,2.89-2.48,4-3.45-.26-1.19-.3-1.39-.34-1.58A1.54,1.54,0,0,0,168.94,164.44Z"/><path class="cls-3" d="M125.9,167.25c.78-.43,1.55-.89,2.35-1.29a4.11,4.11,0,0,1,1-.23c0,.3,0,.6-.07.9-.08.45-.21.88-.27,1.33,0,.07.25.17.38.25a7,7,0,0,0,1.14-2.82,4.69,4.69,0,0,0-.26-.65,7.22,7.22,0,0,0-2,.66A20.75,20.75,0,0,0,125.9,167.25Z"/><path class="cls-3" d="M127.39,156.19a1.47,1.47,0,0,0-.43.16q-2.58,2.29-5.14,4.62a1.66,1.66,0,0,0-.25.41l.29.13c.38.37.76.74,1.15,1.1q2.17-3,4.34-6C127.43,156.55,127.38,156.35,127.39,156.19Z"/><path class="cls-3" d="M222.44,167.83a2.49,2.49,0,0,0,.45-.78,2.65,2.65,0,0,0-.86.29c-1.75,1.35-3.47,2.73-5.2,4.11a2.06,2.06,0,0,0-.25.26l.66.36C218.91,170.72,220.69,169.29,222.44,167.83Z"/><path class="cls-3" d="M158.56,164.09c-.74-.09-1.11-.24-1.21-.14-.93,1-1.82,2-2.69,3,0,.05.17.33.26.5Z"/><path class="cls-3" d="M135.88,151.19l4.41-2.51c-.17-.29-.35-.58-.65-1.1-1.44,1.21-2.68,2.24-3.9,3.29C135.71,150.89,135.83,151.08,135.88,151.19Z"/><path class="cls-3" d="M244.29,204l.9.8,3.14-2c-.26-.14-.59-.46-.75-.39C246.46,202.93,245.38,203.49,244.29,204Z"/><path class="cls-3" d="M110.34,153.33q-2,1.5-4,3a.8.8,0,0,0-.18.44s.23.16.27.13c1.51-1,3-2,5-3.33C110.64,153.4,110.42,153.27,110.34,153.33Z"/><path class="cls-3" d="M128.27,152.61c.17-.13.22-.4.32-.61-.23.05-.5,0-.66.14-1.76,1.4-3.5,2.83-5.25,4.25l.22.3C124.7,155.33,126.49,154,128.27,152.61Z"/><path class="cls-3" d="M174.41,203.84l1.45-.55c-1-.23-2.05-.48-3.09-.68-.15,0-.35.16-.53.25Z"/><path class="cls-3" d="M160.29,174.72s.11.23.17.34c1.17-1.05,2.35-2.09,3.52-3.15,0,0,0-.21,0-.61C162.58,172.56,161.43,173.64,160.29,174.72Z"/><path class="cls-3" d="M217.18,176.35c.13.1.32.33.39.3.88-.4,1.75-.84,2.88-1.4-.55-.29-.88-.58-1-.51C218.67,175.23,217.93,175.8,217.18,176.35Z"/><path class="cls-3" d="M164.4,173.23l4.39-3.59-.52-.53Z"/><path class="cls-3" d="M140.93,163.32c-1.31,1.35-2.6,2.72-3.89,4.09,0,0,.11.21.17.32l4.77-4.37C141.26,163.33,141,163.24,140.93,163.32Z"/><path class="cls-3" d="M159,153.18c.08,0,.32.35.49.55a23.23,23.23,0,0,0,.66-2.26,7,7,0,0,0-1.24-.56,14.93,14.93,0,0,1-1.32,2.69c-.93,1.24-2.06,2.34-3.11,3.5,1.17-1.1,2.33-2.21,3.51-3.3A3.2,3.2,0,0,1,159,153.18Z"/></svg>