<svg id="Layer_1" data-name="Layer 1" xmlns="http://www.w3.org/2000/svg" viewBox="0 0 300 300"><defs><style>.cls-1{fill:#231f20;}.cls-2,.cls-3,.cls-4{fill:#fff;}.cls-3,.cls-4{stroke:#231f20;stroke-miterlimit:10;}.cls-3{stroke-width:5px;}.cls-4{stroke-width:6px;}</style></defs><path class="cls-1" d="M259.19,278.91H243.52V99.25c0-4.94-10.13-6-15.61-6s-15.61,1-15.61,6V250.34l-7.83-19.9V204.52c0-2.73-13.15-6.15-23.33-6.15-10.59,0-22.93,3.42-22.93,6.15v25.92l-2.38,6.74L150.33,223v-47c0-4.94-23.83-11.14-42.29-11.14-19.2,0-41.56,6.2-41.56,11.14v47l-15,55.87c-5.48,0-5.48,14.24,0,14.24H259.19C264.66,293.15,264.66,278.91,259.19,278.91Z"/><rect class="cls-2" x="212.3" y="115.21" width="31.22" height="3.87"/><rect class="cls-2" x="212.3" y="145.83" width="31.22" height="3.87"/><rect class="cls-2" x="212.3" y="176.44" width="31.22" height="3.87"/><path class="cls-3" d="M246.18,45.27a3.89,3.89,0,0,0-4.07-3.68,4.46,4.46,0,0,0-1.42.25,13,13,0,0,0-4.53-3.56A10,10,0,0,0,231.24,31a7,7,0,0,0,1.53-3.59,7.63,7.63,0,0,0,5.86-7.15c0-4.12-3.69-7.46-8.24-7.48a5,5,0,0,0-9.86.26A4.4,4.4,0,0,0,223,16.83a6.89,6.89,0,0,0-.84,2.47h-.07a2.94,2.94,0,0,0-2.83,1.89,7.05,7.05,0,0,0-2.7,5.45,6.92,6.92,0,0,0,1.83,4.64,9.77,9.77,0,0,0-4.51,8.09,9.57,9.57,0,0,0,3,6.89,11.31,11.31,0,0,0-.34,2.68c0,.28,0,.56.05.84a8.58,8.58,0,0,0-6.8,8.08c0,4,3.05,7.28,7.15,8.16a8.93,8.93,0,0,0-.4,2.59c0,5.36,4.82,9.71,10.75,9.71S238,74,238,68.61a9,9,0,0,0-.43-2.7A6.37,6.37,0,0,0,242.33,60a5.87,5.87,0,0,0-1.58-4,11.21,11.21,0,0,0,2.52-7c0-.06,0-.11,0-.17A3.74,3.74,0,0,0,246.18,45.27Z"/><path class="cls-4" d="M156.08,115.46c-.09-10.24-9.2-18.53-20.51-18.75A7.71,7.71,0,0,0,138,91.13a7.8,7.8,0,0,0-2.85-5.94,17.61,17.61,0,0,0,6.4-13.4c0-10.21-9.17-18.49-20.49-18.49A22.55,22.55,0,0,0,114,54.46a11.33,11.33,0,0,0-5.83-1.59,10.74,10.74,0,0,0-8.87,4.44,29.65,29.65,0,0,0-15-4C74,53.3,65,58.44,60.24,66a10.38,10.38,0,0,0-3.18-.5c-5.33,0-9.65,3.9-9.65,8.71S51.73,83,57.06,83h.16A22.53,22.53,0,0,0,59,88.09c-9.9,1.65-17.4,9.47-17.4,18.87,0,10.61,9.53,19.21,21.29,19.21a23.45,23.45,0,0,0,6.49-.91,15.35,15.35,0,0,0,.86,4.29,6.85,6.85,0,0,0-3.54,5.87c0,3.86,3.47,7,7.75,7a8.06,8.06,0,0,0,6-2.61A20.36,20.36,0,0,0,88,141.24c.35,0,.69,0,1-.05,2,6.23,7.91,10.94,15.19,11.82a8.34,8.34,0,0,0,6.33,2.79c4.2,0,7.64-2.89,8-6.58a16.43,16.43,0,0,0,5.94-8.66,14.69,14.69,0,0,0,8.28-6.13c.75.07,1.51.11,2.28.11a22,22,0,0,0,15.42-6.13l.32,0c4.49,0,8.13-3.29,8.13-7.34A7.07,7.07,0,0,0,156.08,115.46Z"/></svg>