<svg id="Layer_1" data-name="Layer 1" xmlns="http://www.w3.org/2000/svg" viewBox="0 0 300 300"><defs><style>.cls-1{fill:#fff200;}.cls-2{fill:#fff;}.cls-3{fill:#00aeef;}</style></defs><path class="cls-1" d="M150,288.15A123.3,123.3,0,0,1,26.85,165c0-19.21,10.85-52.49,62.54-102A568.31,568.31,0,0,1,150,13c18.62,13.25,123.15,90.41,123.15,152A123.3,123.3,0,0,1,150,288.15Z"/><path class="cls-2" d="M150,19.11a566.91,566.91,0,0,1,57.35,47.68c39.77,38.15,60.8,72.11,60.8,98.21A118.14,118.14,0,0,1,66.46,248.54,117.34,117.34,0,0,1,31.85,165c0-26.1,21-60.06,60.8-98.21A566.91,566.91,0,0,1,150,19.11m0-12.26S21.85,94.23,21.85,165a128.15,128.15,0,0,0,256.3,0C278.15,94.23,150,6.85,150,6.85Z"/><g id="SSjFtk.tif"><path class="cls-3" d="M51,143.8c.24,1.67.35,3,.65,4.34a4.73,4.73,0,0,0,1,1.59,17.12,17.12,0,0,1,1.46,1.77A27.78,27.78,0,0,0,56.23,155c-.1,2.62,1.36,4.57,2.73,6.76,2.26,3.59,3.85,7.6,5.94,11.3,1.88,3.31,4.06,6.45,6.13,9.66,1.48,2.29,2.92,4.61,4.54,6.8,1,1.37,2.36,2.49,3.48,3.78.58.67.93,1.52,1.48,2.22,1.89,2.42,17.23,1.16,18.47,1.2,3,.09,6.13.83,8.33-.4-1-1.4-1.92-3.19-3.32-4.35A45.18,45.18,0,0,1,91.72,176.5c-1.47-3.09-2.89-6.24-4.06-9.46a67.37,67.37,0,0,1-1.92-7.49c-.63-2.66-1.22-5.34-1.75-8a14.71,14.71,0,0,0-.42-2.56c-.35-1.64-.71-3.27-1.06-4.9-1-4.77-1.73-9.5-4.18-14-1.87-3.42-4.66-2.87-7.26-3.65-.86-.26-1.76-.37-2.85-.58,1.67-2.22,4-2.59,6.23-3.18a8.38,8.38,0,0,1,6,.21,1.93,1.93,0,0,0,1.78-.69c.3-.6.32-1.91-.06-2.17a16,16,0,0,0-4.9-2.62c-2.27-.61-4.69-.63-7.26-1.4,1.24-.54,2.44-1.16,3.71-1.61,2.56-.93,5.21-1.66,7.73-2.69,1.28-.53,2.28-1.78,3.58-2.24,1.85-.66,3.9-.75,5.79-1.34,4.55-1.42,8.73.36,13,1.37a5.62,5.62,0,0,1,2.52,1.43c3.76,3.78,7.52,7.62,9.92,12.43,1.47,3,2.12,6.34,3.6,9.3a36.51,36.51,0,0,0,4.66,6.6,59.83,59.83,0,0,0,4.83,5.12c2.76,2.68,5.54,5.35,8.42,7.9,2.24,2,4.58,3.89,7,5.69a90.5,90.5,0,0,0,8.07,5.58c5.49,3.24,11.71,4.09,17.84,5.41,6.4,1.37,12.32-.34,18.39-1.52,2.44-.48,4.86-1.05,7.29-1.63q5.67-1.38,11.33-2.81c7.08-1.78,14.15-3.59,21.24-5.38,1.91-.48,3.83-.92,5.83-1.4l.38,1.76a5.1,5.1,0,0,0,1.11.06c2.89-.49,5.78-1.05,8.68-1.45.5-.07,1.09.47,1.64.72a6.32,6.32,0,0,1-.91,1.52,19.8,19.8,0,0,1-2.39,1.62c2.07,0,3.76-.06,5.45,0a2.85,2.85,0,0,1,1.92.61c1.19,1.61,2.31,3.16,4.84,2.52l-.13.54L250,165.19l-.09.55c.84.17,1.69.3,2.51.51s1.78.56,2.43.77c.49,1.47-2.74,1.95-.18,3.38l-2.27.69-.13.62,3.38,1.53L249.51,175a26.46,26.46,0,0,0,2.69.86,1.82,1.82,0,0,1,1.42,2.8c-.58,1.14-1.61,2.53-2.72,2.84a90.21,90.21,0,0,1-10.55,2.2c-6.22,1-12.43.13-18.65-.19-5.44-.29-10.89-.35-16.32-.64-5.21-.29-10.39-.82-15.59-1.11-3.44-.19-6.89-.22-10.34-.16a7.24,7.24,0,0,0-2.42,1L171,185.36l.67.74-8.73,2.59L160,191.94a38.59,38.59,0,0,1,2.57,3.93c.34.66.05,1.65.05,2.7l-2.7-.74c1.89,4,5.35,6.55,6.18,10.53l-.47.55c-2.18-1.06-4.42-2-6.52-3.22-3.92-2.26-7.75-4.68-11.65-7-1.38-.82-2.44-.59-3.07,1.09A13,13,0,0,1,143,202.1c-1.41,2.23-2.79,4.47-4.22,6.68-.67,1-1.49,2-2.15,3-1.35,2.13-2.75,4.25-3.91,6.5a44.91,44.91,0,0,0-1.9,4.93,50.4,50.4,0,0,1,5.4,4.08c1.5,1.45,3.7,2.77,2.91,4.79,2.84,4.65,30.41,43.6,31.94,48.52l-13,.88c3.08-.16-19.57-35.3-22.71-35.41a2.86,2.86,0,0,1-1.77-1.25c-1.08-1.51-1.76-3-4.2-3.17-1.65-.13-3.24-1.92-4.7-3.15a20,20,0,0,1-2.39-2.83l-2.74.93-.51,1.28-.4-.24a17,17,0,0,1-.39-3.37,8.58,8.58,0,0,1,.91-3.2c.54-1,.65-2-.42-2.52-2.36-1.18-3.17-3.54-4.56-5.48a8.12,8.12,0,0,0-1.84-1.6c-.3-.23-.8-.23-1-.49-1.1-1.21-2.11-2.51-3.21-3.73s-2.24-.95-3.24.3a11.56,11.56,0,0,1-1.86,1.51l-.68-.56a9.76,9.76,0,0,1,1.13-1.94c1.14-1.22,1.09-2-.3-3.09-.6-.48-1-1.21-1.63-1.66a6.35,6.35,0,0,0-3-1.25L98,208.68c-1.82,1.43-.65,2.92-.31,4.67-2.09-.91-2.28-2.52-2.48-4.19A17.68,17.68,0,0,0,94,204.27a11.43,11.43,0,0,0-4.35,11.25c-2-.88-2.34-2.62-2.39-5.89,0-2.56,1.91-4,2.5-5.73-.67-1.74-11.33,1.11-13.33-1.23a32.17,32.17,0,0,1-2.29-3.92,18.62,18.62,0,0,0-1.8-2.43c-2.35-2.64-4.89-5.1-6.44-8.37a32.12,32.12,0,0,0-2-2.74c-1.66-2.67-3.33-5.34-4.82-8.11-.61-1.13-.39-2.81-2.63-2.65,1.48-3.46-2.49-4.25-3-6.76,0-.17-.28-.28-.36-.45l-3-5.93c-2.34-1.62-5.59.3-7.23-1.72-2-.39-3.58-.66-5.13-1-.19-.05-.4-.71-.32-1a1.24,1.24,0,0,1,.76-.76c.94-.24,1.91-.35,2.87-.54,2.32-.47,4.64-1,7-1.46l-.29-2.05.92-.36c-1.84-7.23-1.84-7.23.46-9.78Zm55.13,61.55,7.19,5.76c.74,2.08,10.53,10.33,12.8,10.33q2.43-4.17,4.87-8.32c2.05-3.48,4.16-6.93,6.16-10.44.94-1.66.47-2.7-1.3-3.28a23,23,0,0,0-3.77-1.06,14.39,14.39,0,0,0-3.06.16l.05.43,2.14,1.29-.28.68-5.32-1.55,1.31,2.18-10-3,1,2.56c-1.52-.49-3.13-1.46-4.69-1.39s-3.24,1.22-4.9,1.76C106.12,202.18,105.79,203.67,106.17,205.35Z"/></g></svg>